<svg xmlns="http://www.w3.org/2000/svg" width="29.24" height="29.24" viewBox="0 0 29.24 29.24">
  <g id="about_us" transform="translate(-30 -579)">
    <path id="Path_1197" data-name="Path 1197" d="M14.62,0A14.62,14.62,0,1,1,0,14.62,14.582,14.582,0,0,1,14.62,0Zm0,1.351A13.309,13.309,0,1,0,27.969,14.62,13.293,13.293,0,0,0,14.62,1.351Z" transform="translate(30 579)" fill="#fff"/>
    <path id="Path_1209" data-name="Path 1209" d="M11.1,8.7H21.162a2.337,2.337,0,0,1,2.319,2.319V24.165l-2.319-2.319H11.119A2.337,2.337,0,0,1,8.8,19.528V11.019A2.3,2.3,0,0,1,11.1,8.7Zm4.263,9.65h1.552V14.1H15.365Zm.767-5.4a.773.773,0,0,0,.767-.767.767.767,0,1,0-1.534,0A.773.773,0,0,0,16.132,12.945Z" transform="translate(28.7 576.8)" fill="none" stroke="#fff" stroke-width="1"/>
  </g>
</svg>
