<svg xmlns="http://www.w3.org/2000/svg" width="14.596" height="17.59" viewBox="0 0 14.596 17.59">
  <path id="Icon_map-laundry" data-name="Icon map-laundry" d="M4.32,4.462V17.09a1.225,1.225,0,0,0,1.033,1.22H17.785a1.315,1.315,0,0,0,1.131-1.22V4.462ZM11.6,14.483a3.907,3.907,0,0,1-3.971-3.841A3.907,3.907,0,0,1,11.6,6.8a3.907,3.907,0,0,1,3.971,3.841A3.907,3.907,0,0,1,11.6,14.483ZM17.785.72H5.353a.968.968,0,0,0-1.033.937V3.714h14.6V1.657A1.06,1.06,0,0,0,17.785.72Zm-8.6,2.245H5.068v-1.5H9.185Zm7.165-.1a.832.832,0,0,1-.845-.819.846.846,0,0,1,1.691,0A.833.833,0,0,1,16.351,2.861Z" transform="translate(-4.32 -0.72)" fill="#b52421"/>
</svg>
