<svg xmlns="http://www.w3.org/2000/svg" width="29.24" height="29.24" viewBox="0 0 29.24 29.24">
  <g id="coupons_offers" transform="translate(-30 -389)">
    <path id="Path_1193" data-name="Path 1193" d="M14.62,0A14.62,14.62,0,1,1,0,14.62,14.582,14.582,0,0,1,14.62,0Zm0,1.351A13.309,13.309,0,1,0,27.969,14.62,13.293,13.293,0,0,0,14.62,1.351Z" transform="translate(30 389)" fill="#fff"/>
    <g id="Group_475" data-name="Group 475" transform="translate(34 393)">
      <g id="Group_474" data-name="Group 474">
        <path id="Path_1201" data-name="Path 1201" d="M34,27.813a3.551,3.551,0,0,0,1.132-2.384A3.687,3.687,0,0,0,34,23.045c-.149-.209-.387-.507-.447-.6a3.587,3.587,0,0,1,0-.8,3.818,3.818,0,0,0-.507-2.592A3.627,3.627,0,0,0,30.691,17.8a2.733,2.733,0,0,1-.745-.238c-.089-.089-.3-.447-.447-.656a3.587,3.587,0,0,0-1.937-1.788,1.826,1.826,0,0,0-.8-.119,4.506,4.506,0,0,0-1.788.447,3.865,3.865,0,0,1-.8.238,4.466,4.466,0,0,1-.8-.238A4.935,4.935,0,0,0,21.573,15c-.238,0-.536.06-.8.089a4.082,4.082,0,0,0-1.937,1.788c-.149.209-.358.536-.447.656a1.568,1.568,0,0,1-.745.238,4.084,4.084,0,0,0-2.354,1.251,4,4,0,0,0-.507,2.592,3.587,3.587,0,0,1,0,.8,5.127,5.127,0,0,1-.447.6A3.551,3.551,0,0,0,13.2,25.4a3.687,3.687,0,0,0,1.132,2.384c.149.209.387.507.447.6a3.587,3.587,0,0,1,0,.8,3.818,3.818,0,0,0,.507,2.592,3.627,3.627,0,0,0,2.354,1.251,2.733,2.733,0,0,1,.745.238c.089.089.3.447.447.656a3.587,3.587,0,0,0,1.937,1.788,2.3,2.3,0,0,0,.8.089,4.506,4.506,0,0,0,1.788-.447,3.865,3.865,0,0,1,.8-.238,4.466,4.466,0,0,1,.8.238,4.935,4.935,0,0,0,1.788.447c.238,0,.536-.06.8-.089A4.082,4.082,0,0,0,29.5,33.921c.149-.209.358-.536.447-.656a1.988,1.988,0,0,1,.745-.238,4.084,4.084,0,0,0,2.354-1.251,4,4,0,0,0,.507-2.592,3.587,3.587,0,0,1,0-.8C33.581,28.319,33.85,28.021,34,27.813ZM32.688,26.77a4.657,4.657,0,0,0-.8,1.132,3.962,3.962,0,0,0-.06,1.46,2.3,2.3,0,0,1-.149,1.46,2.016,2.016,0,0,1-1.341.6,3.151,3.151,0,0,0-1.341.507,3.308,3.308,0,0,0-.894,1.1,2.223,2.223,0,0,1-1.043,1.1.358.358,0,0,1-.238.06,2.5,2.5,0,0,1-1.132-.358,3.548,3.548,0,0,0-1.46-.387,4.432,4.432,0,0,0-1.46.387,3.794,3.794,0,0,1-1.132.358c-.089,0-.209,0-.238-.06a2.881,2.881,0,0,1-1.043-1.1,4.037,4.037,0,0,0-.894-1.1,4.481,4.481,0,0,0-1.341-.507c-.536-.149-1.1-.238-1.341-.6a2.3,2.3,0,0,1-.149-1.46,3.435,3.435,0,0,0-.089-1.46,3.178,3.178,0,0,0-.8-1.132c-.387-.447-.8-.894-.8-1.341a2.551,2.551,0,0,1,.745-1.341,4.657,4.657,0,0,0,.8-1.132,3.962,3.962,0,0,0,.06-1.46,2.3,2.3,0,0,1,.149-1.46,2.016,2.016,0,0,1,1.341-.6,3.151,3.151,0,0,0,1.341-.507,3.636,3.636,0,0,0,.894-1.1,2.223,2.223,0,0,1,1.043-1.1.358.358,0,0,1,.238-.06,2.5,2.5,0,0,1,1.132.358,3.548,3.548,0,0,0,1.46.387,4.432,4.432,0,0,0,1.46-.387,3.794,3.794,0,0,1,1.132-.358c.089,0,.209,0,.238.06a2.881,2.881,0,0,1,1.043,1.1,4.037,4.037,0,0,0,.894,1.1,4.481,4.481,0,0,0,1.341.507c.536.149,1.1.238,1.341.6a2.3,2.3,0,0,1,.149,1.46,3.991,3.991,0,0,0,.06,1.46,3.178,3.178,0,0,0,.8,1.132,2.551,2.551,0,0,1,.745,1.341C33.432,25.876,33.045,26.323,32.688,26.77Zm-5.572-2.324c-1.341,0-2,.894-2,2.741a3.446,3.446,0,0,0,.507,2.056,1.962,1.962,0,0,0,2.98,0,3.272,3.272,0,0,0,.507-2.056,3.668,3.668,0,0,0-.536-2.056A1.73,1.73,0,0,0,27.115,24.446Zm0,4.231a.35.35,0,0,1-.387-.358,4.377,4.377,0,0,1,0-2.265c.089-.238.238-.358.387-.358.358,0,.536.507.536,1.49C27.711,28.17,27.5,28.677,27.115,28.677Zm-4.41-2.95a3.272,3.272,0,0,0,.507-2.056,3.668,3.668,0,0,0-.536-2.056,1.787,1.787,0,0,0-1.49-.685c-1.341,0-2,.894-2,2.741a3.329,3.329,0,0,0,.507,2.056,1.787,1.787,0,0,0,1.49.685A1.632,1.632,0,0,0,22.705,25.727Zm-1.937-.894a4.377,4.377,0,0,1,0-2.265c.089-.238.238-.358.387-.358.358,0,.536.507.536,1.49s-.209,1.49-.536,1.49C21.037,25.191,20.888,25.072,20.769,24.833ZM25.8,21.079l-4.678,8.731h1.4L27.2,21.079Z" transform="translate(-13.2 -15)" fill="#fff9f9"/>
      </g>
    </g>
  </g>
</svg>
