<svg id="edit_profile" xmlns="http://www.w3.org/2000/svg" width="30.053" height="30.053" viewBox="0 0 30.053 30.053">
  <path id="Path_1188" data-name="Path 1188" d="M90.289,80a4.914,4.914,0,0,1,4.9,4.9,4.839,4.839,0,0,1-2.368,4.165,8.582,8.582,0,0,1,5.88,7.187.7.7,0,0,1-1.388.163,7.057,7.057,0,0,0-14.046,0,.659.659,0,1,1-1.307-.163,8.342,8.342,0,0,1,5.88-7.187A4.671,4.671,0,0,1,85.47,84.9,4.845,4.845,0,0,1,90.289,80Zm0,1.388A3.512,3.512,0,1,0,93.8,84.9,3.486,3.486,0,0,0,90.289,81.388Z" transform="translate(-75.262 -73.467)" fill="#fff"/>
  <path id="Path_1189" data-name="Path 1189" d="M15.026,0A15.026,15.026,0,1,1,0,15.026,14.987,14.987,0,0,1,15.026,0Zm0,1.388a13.679,13.679,0,1,0,13.72,13.638A13.662,13.662,0,0,0,15.026,1.388Z" fill="#fff"/>
</svg>
