<svg xmlns="http://www.w3.org/2000/svg" width="20" height="20" viewBox="0 0 20 20">
  <path id="_372890_faq_full_question_round_icon" data-name="372890_faq_full_question_round_icon" d="M9.957,0a10,10,0,1,0,10,10A10,10,0,0,0,9.957,0Zm.294,15.233a1.039,1.039,0,0,1-.8.3,1.041,1.041,0,0,1-.8-.3,1.169,1.169,0,0,1-.278-.831A.965.965,0,0,1,9.45,13.3a1.067,1.067,0,0,1,.806.289,1.129,1.129,0,0,1,.278.817A1.165,1.165,0,0,1,10.251,15.233Zm2.612-7.149a2.8,2.8,0,0,1-.487.817,7.874,7.874,0,0,1-1.124,1.011,4.3,4.3,0,0,0-.912.886,1.572,1.572,0,0,0-.221.77c0,.007,0,.009,0,.015-.087.493-.66.49-.66.49h-.3s-.5-.078-.479-.469a2.764,2.764,0,0,1,.293-1.34A3.821,3.821,0,0,1,9.992,9.158a5.665,5.665,0,0,0,1.124-1.069,1.606,1.606,0,0,0,.253-.908,1.143,1.143,0,0,0-.41-.945,1.842,1.842,0,0,0-1.179-.33,4.045,4.045,0,0,0-1.289.2c-.216.072-.428.154-.638.242l-.011,0a.56.56,0,0,1-.711-.194l-.191-.4A.525.525,0,0,1,7.2,5.05a6.425,6.425,0,0,1,2.7-.586,3.443,3.443,0,0,1,2.278.7,2.392,2.392,0,0,1,.842,1.941A2.759,2.759,0,0,1,12.863,8.085Z" transform="translate(0.043)" fill="#b52421"/>
</svg>
