<svg xmlns="http://www.w3.org/2000/svg" width="29.24" height="29.24" viewBox="0 0 29.24 29.24">
  <g id="faq" transform="translate(-30 -533)">
    <path id="Path_1196" data-name="Path 1196" d="M14.62,0A14.62,14.62,0,1,1,0,14.62,14.582,14.582,0,0,1,14.62,0Zm0,1.351A13.309,13.309,0,1,0,27.969,14.62,13.293,13.293,0,0,0,14.62,1.351Z" transform="translate(30 533)" fill="#fff"/>
    <g id="Group_478" data-name="Group 478" transform="translate(34.708 540)">
      <path id="Path_1204" data-name="Path 1204" d="M10.732,43.913a5.379,5.379,0,0,0-6.3,3.419c-.078.22-1.913,4.925-2.525,6.477a.272.272,0,0,0,.314.361l3.717-.957a5.213,5.213,0,0,0,2.556,1.239,5.389,5.389,0,0,0,2.243-10.539ZM9.9,51.959a.5.5,0,0,1-.392.157.55.55,0,0,1-.533-.533.529.529,0,0,1,.533-.533.516.516,0,0,1,.533.518A.508.508,0,0,1,9.9,51.959Zm.58-3.011-.173.141a.788.788,0,0,0-.345.533c-.016.173-.016.361-.016.565,0,.047,0,.063-.016.078,0,0-.016.016-.094.016H9.1c-.063,0-.078-.016-.078-.078a2.649,2.649,0,0,1,.141-1.176,1.374,1.374,0,0,1,.5-.533,1.79,1.79,0,0,0,.439-.408.661.661,0,0,0,.11-.69A.8.8,0,0,0,9.509,47a.866.866,0,0,0-.831.643c-.047.125-.047.141-.11.141a.306.306,0,0,1-.11-.016c-.22-.031-.439-.063-.659-.078-.094.016-.094-.016-.094-.063A1.737,1.737,0,0,1,9.556,46.2a1.964,1.964,0,0,1,1.286.439,1.348,1.348,0,0,1,.486,1.019C11.328,48.195,10.873,48.587,10.481,48.948Z" transform="translate(-1.884 -39.318)" fill="none" stroke="#fffbfb" stroke-width="0.5"/>
      <path id="Path_1205" data-name="Path 1205" d="M56.523,28.527,54.468,24.2a6.079,6.079,0,0,0,.659-2.776A6.078,6.078,0,0,0,49.042,15.4,6.088,6.088,0,0,0,43.6,18.882a6.542,6.542,0,0,1,1.568-.078,4.74,4.74,0,0,1,8.657,2.635,4.842,4.842,0,0,1-.643,2.415l-.173.3,1.474,3.09c-.972-.173-2.305-.423-3.466-.627a6.045,6.045,0,0,1-.423,1.27c1.192.22,4.407.8,5.677,1.035A.271.271,0,0,0,56.523,28.527Z" transform="translate(-37.058 -15.4)" fill="none" stroke="#fffbfb" stroke-width="0.5"/>
    </g>
  </g>
</svg>
