<svg xmlns="http://www.w3.org/2000/svg" width="16.015" height="28.345" viewBox="0 0 16.015 28.345">
  <g id="_4104740_customer_satisfaction_e-wallet_feedback_mobile_banking_rating_icon" data-name="4104740_customer satisfaction_e-wallet_feedback_mobile banking_rating_icon" transform="translate(-116.026 -8.258)">
    <path id="Path_2590" data-name="Path 2590" d="M130.966,8.258H117.1a1.075,1.075,0,0,0-1.075,1.075v26.2A1.075,1.075,0,0,0,117.1,36.6h13.866a1.075,1.075,0,0,0,1.075-1.075V9.333A1.075,1.075,0,0,0,130.966,8.258Zm-5.561.915h.915a.229.229,0,0,1,0,.458h-.915a.229.229,0,1,1,0-.458Zm-3.661,0h2.288a.229.229,0,1,1,0,.458h-2.288a.229.229,0,1,1,0-.458Zm2.289,26.319a.556.556,0,1,1,.556-.556A.556.556,0,0,1,124.033,35.492Zm7.093-2.433a.37.37,0,0,1-.37.37H117.309a.37.37,0,0,1-.37-.37V11.373a.37.37,0,0,1,.37-.37h13.447a.37.37,0,0,1,.37.37Z" fill="#b52421"/>
    <path id="Path_2591" data-name="Path 2591" d="M239.582,370.752h-.446a.161.161,0,0,1-.153-.111l-.138-.424a.161.161,0,0,0-.306,0l-.138.424a.161.161,0,0,1-.153.111H237.8a.161.161,0,0,0-.094.291l.361.262a.161.161,0,0,1,.058.18l-.138.424a.161.161,0,0,0,.247.18l.361-.262a.161.161,0,0,1,.189,0l.361.262a.161.161,0,0,0,.247-.18l-.138-.424a.161.161,0,0,1,.058-.18l.361-.262A.161.161,0,0,0,239.582,370.752Z" transform="translate(-114.658 -341.147)" fill="#b52421"/>
    <path id="Path_2592" data-name="Path 2592" d="M295.928,370.752h-.446a.161.161,0,0,1-.153-.111l-.138-.424a.161.161,0,0,0-.306,0l-.138.424a.161.161,0,0,1-.153.111h-.446a.161.161,0,0,0-.094.291l.361.262a.161.161,0,0,1,.058.18l-.138.424a.161.161,0,0,0,.247.18l.361-.262a.161.161,0,0,1,.189,0l.361.262a.161.161,0,0,0,.247-.18l-.138-.424a.161.161,0,0,1,.058-.18l.361-.262A.161.161,0,0,0,295.928,370.752Z" transform="translate(-167.781 -341.147)" fill="#b52421"/>
    <path id="Path_2593" data-name="Path 2593" d="M183.233,370.752h-.446a.161.161,0,0,1-.153-.111l-.138-.424a.161.161,0,0,0-.306,0l-.138.424a.161.161,0,0,1-.153.111h-.446a.161.161,0,0,0-.094.291l.361.262a.161.161,0,0,1,.058.18l-.138.424a.161.161,0,0,0,.247.18l.361-.262a.161.161,0,0,1,.189,0l.361.262a.161.161,0,0,0,.247-.18l-.138-.424a.161.161,0,0,1,.058-.18l.361-.262A.161.161,0,0,0,183.233,370.752Z" transform="translate(-61.533 -341.147)" fill="#b52421"/>
    <path id="Path_2594" data-name="Path 2594" d="M158.412,146.037a5.692,5.692,0,1,0,5.692,5.692A5.7,5.7,0,0,0,158.412,146.037Zm0,10.927a5.235,5.235,0,1,1,5.235-5.235A5.241,5.241,0,0,1,158.412,156.964Z" transform="translate(-34.595 -129.897)" fill="#b52421"/>
    <path id="Path_2595" data-name="Path 2595" d="M179.3,168.19a4.425,4.425,0,1,0,4.425,4.425A4.425,4.425,0,0,0,179.3,168.19Zm-1.786,3.63a.457.457,0,1,1,.457.457A.457.457,0,0,1,177.511,171.82Zm1.786,2.851a1.4,1.4,0,0,1-1.4-1.4.314.314,0,0,1,.314-.314h2.176a.314.314,0,0,1,.314.314A1.4,1.4,0,0,1,179.3,174.671Zm1.328-2.394a.457.457,0,1,1,.457-.457A.457.457,0,0,1,180.625,172.277Z" transform="translate(-55.48 -150.783)" fill="#b52421"/>
    <path id="Path_2596" data-name="Path 2596" d="M249.541,97.313a.229.229,0,0,0,.229-.229V95.966a.229.229,0,1,0-.458,0v1.119A.229.229,0,0,0,249.541,97.313Z" transform="translate(-125.661 -82.475)" fill="#b52421"/>
    <path id="Path_2597" data-name="Path 2597" d="M278.151,99.514a.229.229,0,0,0,.277-.168l.266-1.087a.229.229,0,0,0-.445-.109l-.266,1.087A.229.229,0,0,0,278.151,99.514Z" transform="translate(-152.686 -84.586)" fill="#b52421"/>
    <path id="Path_2598" data-name="Path 2598" d="M216.421,99.347a.229.229,0,0,0,.223.178.223.223,0,0,0,.051-.006.229.229,0,0,0,.173-.274l-.247-1.091a.229.229,0,1,0-.446.1Z" transform="translate(-94.414 -84.587)" fill="#b52421"/>
  </g>
</svg>
