<svg xmlns="http://www.w3.org/2000/svg" width="21.438" height="25.478" viewBox="0 0 21.438 25.478">
  <g id="Group_1980" data-name="Group 1980" transform="translate(-133.201 -367)">
    <g id="Rectangle_713" data-name="Rectangle 713" transform="translate(133.201 370.363)" fill="#b52421" stroke="#b52421" stroke-width="1">
      <rect width="17.661" height="21.501" rx="1" stroke="none"/>
      <rect x="0.5" y="0.5" width="16.661" height="20.501" rx="0.5" fill="none"/>
    </g>
    <g id="Path_2530" data-name="Path 2530" transform="translate(148.227 378.59) rotate(-138)" fill="#fff">
      <path d="M 6.797764301300049 3.438699245452881 L 1.30254864692688 3.438699245452881 L 4.337357044219971 0.7061393260955811 L 6.797764301300049 3.438699245452881 Z" stroke="none"/>
      <path d="M 4.300351142883301 1.412270069122314 L 2.605082988739014 2.938699245452881 L 5.674753189086914 2.938699245452881 L 4.300351142883301 1.412270069122314 M 4.374363899230957 -7.152557373046875e-07 L 7.920783996582031 3.938699245452881 L 4.291534423828125e-06 3.938699245452881 L 4.374363899230957 -7.152557373046875e-07 Z" stroke="none" fill="#b52421"/>
    </g>
    <path id="Path_2531" data-name="Path 2531" d="M4.8,0l3.89,4.32H0Z" transform="translate(147.68 367) rotate(42)" fill="#fff"/>
    <path id="Path_2532" data-name="Path 2532" d="M-20443.223-11106.083h7.52" transform="translate(20578.775 11479.486)" fill="none" stroke="#fff" stroke-linecap="round" stroke-width="1"/>
    <path id="Path_2533" data-name="Path 2533" d="M-20443.223-11106.083h7.52" transform="translate(20578.775 11481.405)" fill="none" stroke="#fff" stroke-linecap="round" stroke-width="1"/>
    <path id="Path_2534" data-name="Path 2534" d="M-20431.391-11082.067h-5.406l.883,4.045h6.621l1.986-6.693h1.654" transform="translate(20572.764 11465.637)" fill="none" stroke="#fff" stroke-linecap="round" stroke-width="1"/>
    <g id="Group_1887" data-name="Group 1887" transform="translate(136.656 388.408)">
      <g id="Ellipse_513" data-name="Ellipse 513" fill="#fff" stroke="#fff" stroke-width="1">
        <circle cx="1.152" cy="1.152" r="1.152" stroke="none"/>
        <circle cx="1.152" cy="1.152" r="0.652" fill="none"/>
      </g>
      <g id="Ellipse_514" data-name="Ellipse 514" transform="translate(4.223)" fill="#fff" stroke="#fff" stroke-width="1">
        <circle cx="1.152" cy="1.152" r="1.152" stroke="none"/>
        <circle cx="1.152" cy="1.152" r="0.652" fill="none"/>
      </g>
    </g>
    <g id="Ellipse_515" data-name="Ellipse 515" transform="translate(136.273 376.89)" fill="#fff" stroke="#fff" stroke-width="1">
      <circle cx="2.88" cy="2.88" r="2.88" stroke="none"/>
      <circle cx="2.88" cy="2.88" r="2.38" fill="none"/>
    </g>
    <path id="Path_2535" data-name="Path 2535" d="M-20432.775-11089.961l.646,1.018,1.875-1.617" transform="translate(20570.668 11469.521)" fill="none" stroke="#b52421" stroke-linecap="round" stroke-width="1"/>
    <g id="Group_1890" data-name="Group 1890" transform="translate(151.768 379.14)">
      <g id="Path_2536" data-name="Path 2536" transform="translate(2.872 13.339) rotate(180)" fill="#fff">
        <path d="M 0.5247712731361389 3.896035671234131 L 1.315868735313416 0.6559738516807556 L 2.327222347259521 3.863784790039062 L 0.5247712731361389 3.896035671234131 Z" stroke="none"/>
        <path d="M 1.377118229866028 2.513089656829834 L 1.164350748062134 3.384511709213257 L 1.649122595787048 3.375837802886963 L 1.377118229866028 2.513089656829834 M 1.307230830192566 -1.430511474609375e-06 C 1.484435796737671 -1.430511474609375e-06 1.661640763282776 0.0928187370300293 1.721105813980103 0.2784585952758789 L 2.854105710983276 3.872108697891235 C 2.932675838470459 4.117378711700439 2.744305849075317 4.361518859863281 2.458335876464844 4.361518859863281 L 0.4463558197021484 4.397518634796143 C 0.1603858470916748 4.397518634796143 -0.06264424324035645 4.117378711700439 0.01592588424682617 3.872108697891235 L 0.8933558464050293 0.2784585952758789 C 0.9528207778930664 0.0928187370300293 1.130025744438171 -1.430511474609375e-06 1.307230830192566 -1.430511474609375e-06 Z" stroke="none" fill="#b52421"/>
      </g>
      <g id="Group_1889" data-name="Group 1889" transform="translate(0.001 0)">
        <g id="Rectangle_714" data-name="Rectangle 714" fill="#fff" stroke="#b52421" stroke-width="1">
          <path d="M1.428,0h0A1.428,1.428,0,0,1,2.856,1.428V9.283a0,0,0,0,1,0,0H0a0,0,0,0,1,0,0V1.428A1.428,1.428,0,0,1,1.428,0Z" stroke="none"/>
          <path d="M1.428.5h0a.928.928,0,0,1,.928.928V8.651a.133.133,0,0,1-.133.133H.633A.133.133,0,0,1,.5,8.651V1.428A.928.928,0,0,1,1.428.5Z" fill="none"/>
        </g>
      </g>
    </g>
  </g>
</svg>
