<svg xmlns="http://www.w3.org/2000/svg" width="29.24" height="29.24" viewBox="0 0 29.24 29.24">
  <g id="rate_us" transform="translate(-30 -669)">
    <path id="Path_1198" data-name="Path 1198" d="M14.62,0A14.62,14.62,0,1,1,0,14.62,14.582,14.582,0,0,1,14.62,0Zm0,1.351A13.309,13.309,0,1,0,27.969,14.62,13.293,13.293,0,0,0,14.62,1.351Z" transform="translate(30 669)" fill="#fff"/>
    <path id="Path_1211" data-name="Path 1211" d="M11.624,2a9.633,9.633,0,1,0,9.643,9.633A9.629,9.629,0,0,0,11.624,2Zm4.085,15.413-4.075-2.457L7.558,17.413,8.637,12.78,5.044,9.668l4.74-.4,1.85-4.374,1.85,4.364,4.74.4L14.629,12.77Z" transform="translate(33.155 672.034)" fill="none" stroke="#fff" stroke-width="1"/>
  </g>
</svg>
