<svg xmlns="http://www.w3.org/2000/svg" width="20" height="20" viewBox="0 0 20 20">
  <g id="Group_1982" data-name="Group 1982" transform="translate(-121.467 -637.343)">
    <g id="Page-1" transform="translate(131.08 637.343)">
      <g id="Core">
        <g id="thumb-up">
          <path id="Shape" d="M0,9.442H1.889V3.777H0V9.442ZM10.387,4.249A.947.947,0,0,0,9.443,3.3H6.468l.472-2.172V.991A.99.99,0,0,0,6.752.472L6.232,0,3.116,3.116a.792.792,0,0,0-.283.661V8.5a.947.947,0,0,0,.944.944H8.026a.933.933,0,0,0,.85-.567l1.416-3.352a.8.8,0,0,0,.047-.33V4.249Z" fill="#b52421"/>
        </g>
      </g>
    </g>
    <g id="Page-1-2" data-name="Page-1" transform="translate(121.467 647.599)">
      <g id="Core-2" data-name="Core">
        <g id="thumb-down">
          <path id="Shape-2" data-name="Shape" d="M6.821,0H2.436a.962.962,0,0,0-.877.585L.1,4.044a.7.7,0,0,0-.1.341v.974a.977.977,0,0,0,.974.974H4.044L3.557,8.575v.146a1.022,1.022,0,0,0,.195.536l.536.487L7.5,6.528A.962.962,0,0,0,7.8,5.846V.974A.977.977,0,0,0,6.821,0ZM8.77,0V5.846h1.949V0Z" fill="#b52421"/>
        </g>
      </g>
    </g>
  </g>
</svg>
