<svg xmlns="http://www.w3.org/2000/svg" width="20.13" height="22.739" viewBox="0 0 20.13 22.739">
  <g id="Group_1981" data-name="Group 1981" transform="translate(-119.87 -484)">
    <path id="Path_2584" data-name="Path 2584" d="M15,26v1.739A7.632,7.632,0,0,0,19.89,26Z" transform="translate(114.565 478.87)" fill="#b52421"/>
    <path id="Path_2585" data-name="Path 2585" d="M5,16v1.739a2.527,2.527,0,0,0,1.739,2.609s1.739,5.217,6.957,5.217" transform="translate(115.87 480.174)" fill="none" stroke="#b52421" stroke-linecap="round" stroke-width="2"/>
    <path id="Path_2586" data-name="Path 2586" d="M23.13,15.043H20.522c0-5.426-2.609-7.826-2.609-7.826C15.3,13.3,6.609,8.957,6.609,15.043H4V11.565A9.623,9.623,0,0,1,13.565,2c3.478,0,4.348,1.739,4.348,1.739,3.478,0,5.217,4.348,5.217,7.826Z" transform="translate(116 482)" fill="#b52421"/>
    <path id="Path_2587" data-name="Path 2587" d="M15.174,21H14.3a1.3,1.3,0,0,0,0,2.609h.87a1.3,1.3,0,0,0,0-2.609Z" transform="translate(114.826 479.522)" fill="#b52421"/>
    <path id="Path_2588" data-name="Path 2588" d="M16,22.087h4.348a3.478,3.478,0,0,0,3.478-3.478V16" transform="translate(114.435 480.174)" fill="none" stroke="#b52421" stroke-linecap="round" stroke-width="2"/>
    <path id="Path_2589" data-name="Path 2589" d="M24.739,19.348H23V15h1.739a1.739,1.739,0,0,1,1.739,1.739v.87A1.739,1.739,0,0,1,24.739,19.348Z" transform="translate(113.522 480.304)" fill="#b52421"/>
  </g>
</svg>
