<svg xmlns="http://www.w3.org/2000/svg" width="175" height="175" viewBox="0 0 175 175">
  <g id="Group_185" data-name="Group 185" transform="translate(-596 -2223)">
    <circle id="Ellipse_25" data-name="Ellipse 25" cx="87.5" cy="87.5" r="87.5" transform="translate(596 2223)" fill="#b52421"/>
    <g id="call" transform="translate(652 2279)">
      <g id="Group_46" data-name="Group 46">
        <path id="Path_27" data-name="Path 27" d="M58.282,41.593a35.977,35.977,0,0,1-11.3-1.8,5.164,5.164,0,0,0-5.023,1.059L34.835,46.23a39.375,39.375,0,0,1-17.7-17.7l5.22-6.939a5.122,5.122,0,0,0,1.26-5.189A36.032,36.032,0,0,1,21.806,5.085,5.09,5.09,0,0,0,16.722,0H5.085A5.09,5.09,0,0,0,0,5.085,58.347,58.347,0,0,0,58.282,63.366a5.09,5.09,0,0,0,5.085-5.085v-11.6A5.091,5.091,0,0,0,58.282,41.593Z" fill="#fff"/>
      </g>
    </g>
  </g>
</svg>
