<svg xmlns="http://www.w3.org/2000/svg" width="148.998" height="42.001" viewBox="0 0 148.998 42.001">
  <g id="Subtraction_12" data-name="Subtraction 12" transform="translate(-16566.002 -7172.999)" fill="#fffae6">
    <path d="M16715,7215h-94l-7.5-8-7.5,8h-40v-42h40l7.5,8,7.5-8h-3.033l3.035,0h94v42Z" stroke="none"/>
    <path d="M 16714.5 7214.5 L 16714.5 7173.49951171875 L 16621.21875 7173.49951171875 L 16613.5 7181.72998046875 L 16613.134765625 7181.3408203125 L 16605.78125 7173.4990234375 L 16566.501953125 7173.49951171875 L 16566.501953125 7214.4990234375 L 16605.783203125 7214.4990234375 L 16613.5 7206.26806640625 L 16613.865234375 7206.6572265625 L 16621.21875 7214.4990234375 L 16714.5 7214.5 M 16715 7215 L 16621.001953125 7214.9990234375 L 16613.5 7206.9990234375 L 16606 7214.9990234375 L 16566.001953125 7214.9990234375 L 16566.001953125 7172.99951171875 L 16605.998046875 7172.9990234375 L 16613.5 7180.9990234375 L 16621 7173.0009765625 L 16617.966796875 7173.0009765625 L 16621.001953125 7172.9990234375 L 16621.001953125 7172.99951171875 L 16715 7172.99951171875 L 16715 7215 Z" stroke="none" fill="rgba(112,112,112,0.57)"/>
  </g>
</svg>
