<svg xmlns="http://www.w3.org/2000/svg" width="20" height="20" viewBox="0 0 20 20"><defs><style>.a{fill:#bd3935;}</style></defs><path class="a" d="M34.433,54.428l-1.048.6a4.352,4.352,0,0,1-4.016,0l-.446-.268a1.086,1.086,0,0,0-.022.268,4.707,4.707,0,0,0,9.414.022,4.109,4.109,0,0,0-.067-.736A4.254,4.254,0,0,0,34.433,54.428Z" transform="translate(-23.595 -43.338)"/><path class="a" d="M26.553,2.5H8.27a.824.824,0,0,0-.87.758V21.742a.824.824,0,0,0,.87.758H26.553a.8.8,0,0,0,.846-.758V3.258A.788.788,0,0,0,26.553,2.5ZM19.5,4.879a.248.248,0,0,1,.258-.232h.705a.248.248,0,0,1,.259.232v.653a.248.248,0,0,1-.259.232h-.705a.248.248,0,0,1-.258-.232Zm-2.7,0a.248.248,0,0,1,.259-.232h.729a.248.248,0,0,1,.259.232v.653a.248.248,0,0,1-.259.232h-.729a.248.248,0,0,1-.259-.232Zm-2.7,0a.248.248,0,0,1,.258-.232h.705a.248.248,0,0,1,.259.232v.653a.248.248,0,0,1-.259.232h-.705a.248.248,0,0,1-.258-.232Zm-4.113.337a1.206,1.206,0,0,1,2.4,0,1.206,1.206,0,0,1-2.4,0Zm7.426,14.505c-3.29,0-5.946-2.379-5.946-5.326s2.656-5.347,5.946-5.347,5.946,2.4,5.946,5.347S20.7,19.721,17.411,19.721ZM23.662,6.268a1.146,1.146,0,0,1-1.2-1.074,1.206,1.206,0,0,1,2.4,0A1.147,1.147,0,0,1,23.662,6.268Z" transform="translate(-7.4 -2.5)"/></svg>