<svg id="dry_cleaning" xmlns="http://www.w3.org/2000/svg" width="23.569" height="23.176" viewBox="0 0 23.569 23.176">
  <g id="Group_55" data-name="Group 55">
    <path id="Path_1000" data-name="Path 1000" d="M27.866,6.845V5.889a1.964,1.964,0,1,0-2.357-1.925h.786a1.178,1.178,0,1,1,1.178,1.178.393.393,0,0,0-.393.393V6.845L24.544,7.893l.3.726,2.628-1.087L30.1,8.62l.3-.727Z" transform="translate(-15.688 -2.001)" fill="#fff"/>
    <path id="Path_1001" data-name="Path 1001" d="M3.571,10H2.786v.786H2v.786h.786v.786h.786v-.786h.786v-.786H3.571Z" transform="translate(-2 -6.857)" fill="#fff"/>
    <path id="Path_1002" data-name="Path 1002" d="M16.571,2h-.786v.786H15v.786h.786v.786h.786V3.571h.786V2.786h-.786Z" transform="translate(-9.893 -2)" fill="#fff"/>
    <path id="Path_1003" data-name="Path 1003" d="M58.357,10.786h-.786V10h-.786v.786H56v.786h.786v.786h.786v-.786h.786Z" transform="translate(-34.788 -6.857)" fill="#fff"/>
    <path id="Path_1004" data-name="Path 1004" d="M44.571,2h-.786v.786H43v.786h.786v.786h.786V3.571h.786V2.786h-.786Z" transform="translate(-26.895 -2)" fill="#fff"/>
    <path id="Path_1005" data-name="Path 1005" d="M37.772,18.632a1.831,1.831,0,0,0-2.278.247l-2.08,2.079,1.016,1.016Z" transform="translate(-21.074 -11.924)" fill="#fff"/>
    <path id="Path_1006" data-name="Path 1006" d="M23.851,20.96,21.771,18.88a1.832,1.832,0,0,0-2.278-.247l3.342,3.342Z" transform="translate(-12.621 -11.925)" fill="#fff"/>
    <path id="Path_1007" data-name="Path 1007" d="M39,41.571a1.178,1.178,0,0,0,2.357,0V40H39Zm.786-.786h.786v.786h-.786Z" transform="translate(-24.466 -25.073)" fill="#fff"/>
    <path id="Path_1008" data-name="Path 1008" d="M23.814,22.987l-3.722-1.54-3.245,3.245a.393.393,0,0,1-.555,0l-.9-.9v4.158h-.786V23.791l-.9.9a.393.393,0,0,1-.555,0L9.905,21.447l-3.722,1.54A3.525,3.525,0,0,0,4,26.254v10.73H6.75V27.949a.393.393,0,0,1,.115-.278l.786-.786.555.555-.671.671v8.872h7.071v-.393h.786v.393h7.071V28.112l-.671-.671.555-.555.786.786a.393.393,0,0,1,.115.278v9.035H26V26.254a3.525,3.525,0,0,0-2.184-3.267ZM15.392,35.806h-.786v-5.5h.786Zm0-6.285h-.786v-.786h.786Zm5.5.786a1.964,1.964,0,1,1-3.928,0V28.342a.393.393,0,0,1,.393-.393H20.5a.393.393,0,0,1,.393.393Z" transform="translate(-3.214 -13.808)" fill="#fff"/>
  </g>
</svg>
