<svg xmlns="http://www.w3.org/2000/svg" width="36.594" height="30.914" viewBox="0 0 36.594 30.914"><defs><style>.a{fill:#bd3935;}</style></defs><path class="a" d="M25.125,27.418h6.117v1.42H25.125Zm.218-14.747c0-.328-.437-.655-.765-.655H15.293c-.874,0-1.2.328-1.2,1.092v4.7a1.472,1.472,0,0,0,1.529,1.42h7.865a.381.381,0,0,1,.218.109h0l1.2.983.437.218V12.671Zm-3.6-2.4H12.344a1.1,1.1,0,0,0-1.092,1.092v5.9a1.1,1.1,0,0,0,1.092,1.092h1.42v-5.68a1.1,1.1,0,0,1,1.092-1.092h7.974v-.218A1.175,1.175,0,0,0,21.738,10.268ZM21.192,16.6H17.915a.381.381,0,0,1-.218-.109.235.235,0,0,1,.218-.218h3.277a.235.235,0,0,1,.218.218A.381.381,0,0,1,21.192,16.6Zm.874-1.529H17.041c-.109,0-.218,0-.218-.109a.235.235,0,0,1,.218-.218h5.025a.235.235,0,0,1,.218.218C22.284,15.075,22.175,15.075,22.066,15.075ZM3.5,0h9.722a3.52,3.52,0,0,1,3.5,3.5V5.68h-1.42V3.5A2.127,2.127,0,0,0,13,1.42a2.152,2.152,0,0,1-2.185,2.294H5.9A2.152,2.152,0,0,1,3.714,1.42,2.127,2.127,0,0,0,1.42,3.5V27.418A2.054,2.054,0,0,0,3.5,29.385h9.722a2.054,2.054,0,0,0,2.076-1.966V25.234h1.42v2.185a3.52,3.52,0,0,1-3.5,3.5H3.5a3.52,3.52,0,0,1-3.5-3.5V3.5A3.52,3.52,0,0,1,3.5,0Zm8.084,1.42H5.134a.774.774,0,0,0,.765.874h4.916A.774.774,0,0,0,11.579,1.42Zm-6.227,26h6.008v1.42H5.353ZM23.377,0H32.99a3.616,3.616,0,0,1,3.6,3.5V27.418a3.616,3.616,0,0,1-3.6,3.5H23.377a3.52,3.52,0,0,1-3.5-3.5V25.234H21.3v2.185a1.985,1.985,0,0,0,2.076,1.966H32.99a1.985,1.985,0,0,0,2.076-1.966V3.5A2.036,2.036,0,0,0,32.88,1.42,2.152,2.152,0,0,1,30.7,3.714H25.671A2.07,2.07,0,0,1,23.6,1.42,2.07,2.07,0,0,0,21.3,3.5V5.68h-1.42V3.5A3.52,3.52,0,0,1,23.377,0Zm7.974,1.42H25.015c0,.437.218.874.655.874H30.7C31.242,2.294,31.351,1.857,31.351,1.42Z"/></svg>