<svg xmlns="http://www.w3.org/2000/svg" width="34.946" height="30.914" viewBox="0 0 34.946 30.914"><defs><style>.a{fill:#bd3935;opacity:0.9;}</style></defs><path class="a" d="M34.505,6.7H4.64A2.492,2.492,0,0,0,2.1,9.124V29.4a2.491,2.491,0,0,0,2.54,2.424H22.932l.141.215a13.9,13.9,0,0,0,7.9,5.574,8.983,8.983,0,0,1-.932-5.79h4.46a2.492,2.492,0,0,0,2.54-2.424V9.1A2.506,2.506,0,0,0,34.505,6.7ZM13.448,19.087l-.621.592c-.056.054-.311.323-.311.323a.578.578,0,0,0-.169.512l.254,1.212a.5.5,0,0,1-.141.4.464.464,0,0,1-.367.162.828.828,0,0,1-.367-.108l-.565-.215-.2-.081a1.722,1.722,0,0,0-.565-.135,1.154,1.154,0,0,0-.565.135l-.2.081-.565.215a.828.828,0,0,1-.367.108.464.464,0,0,1-.367-.162.622.622,0,0,1-.141-.4l.254-1.212A.67.67,0,0,0,8.282,20s-.254-.269-.311-.323l-.621-.592a.6.6,0,0,1-.226-.619.405.405,0,0,1,.339-.242l1.468-.162a.619.619,0,0,0,.452-.323c.169-.323.311-.673.48-1,.113-.242.2-.539.565-.566.339.027.423.323.565.566.169.323.311.673.48,1a.677.677,0,0,0,.452.323l1.468.162a.363.363,0,0,1,.311.242A.708.708,0,0,1,13.448,19.087Zm9.146,0-.621.592c-.056.054-.311.323-.311.323a.512.512,0,0,0-.169.512l.254,1.212a.638.638,0,0,1-.113.4.464.464,0,0,1-.367.162.828.828,0,0,1-.367-.108l-.565-.215-.2-.081a1.722,1.722,0,0,0-.565-.135,1.154,1.154,0,0,0-.565.135l-.2.081-.565.215a.828.828,0,0,1-.367.108.464.464,0,0,1-.367-.162.622.622,0,0,1-.141-.4l.226-1.212A.67.67,0,0,0,17.428,20s-.254-.269-.311-.323l-.649-.592a.6.6,0,0,1-.226-.619.405.405,0,0,1,.339-.242l1.468-.162a.619.619,0,0,0,.452-.323c.169-.323.311-.673.48-1,.113-.242.2-.539.565-.566.339.027.423.323.565.566.169.323.311.673.48,1a.677.677,0,0,0,.452.323l1.468.162a.448.448,0,0,1,.339.242A.637.637,0,0,1,22.593,19.087Zm9.174,0-.621.592c-.056.054-.311.323-.311.323a.512.512,0,0,0-.169.512l.254,1.212a.5.5,0,0,1-.141.4.464.464,0,0,1-.367.162.828.828,0,0,1-.367-.108l-.565-.215-.226-.081a1.722,1.722,0,0,0-.565-.135,1.154,1.154,0,0,0-.565.135l-.2.081-.565.215a.828.828,0,0,1-.367.108.464.464,0,0,1-.367-.162.622.622,0,0,1-.141-.4l.254-1.212A.67.67,0,0,0,26.573,20s-.254-.269-.311-.323l-.621-.592a.6.6,0,0,1-.226-.619.4.4,0,0,1,.311-.242l1.468-.162a.619.619,0,0,0,.452-.323c.169-.323.31-.673.48-1,.113-.242.2-.539.565-.566.339.027.452.323.565.566.141.323.311.673.48,1a.677.677,0,0,0,.452.323l1.468.162a.448.448,0,0,1,.339.242A.6.6,0,0,1,31.767,19.087Z" transform="translate(-2.1 -6.7)"/></svg>