<svg xmlns="http://www.w3.org/2000/svg" width="36.894" height="30.914" viewBox="0 0 36.894 30.914"><defs><style>.a{fill:#bd3935;opacity:0.9;}</style></defs><path class="a" d="M41.594,32.933l-.779.217a4.506,4.506,0,0,0-.943-1.486A5.465,5.465,0,0,0,35.2,30.142a4.721,4.721,0,0,0-4.263,4.639c0,.109.041.254.041.362H20.893a4.8,4.8,0,0,0,.082-.761,4.779,4.779,0,0,0-4.345-4.24,5.586,5.586,0,0,0-4.1,1.051A4.366,4.366,0,0,0,10.767,34.6a2.431,2.431,0,0,0,.041.544H9.5L5.93,29.273c-.779-1.268.041-3.008,2.009-3.008H23.024v6.161h5.329l3.607-5.183L29.5,22.024a.721.721,0,0,1-.369-.109.747.747,0,0,1-.41-.652.821.821,0,0,1,.861-.761.835.835,0,0,1,.656.29s1.271,1.486,2.788,3.226a1.985,1.985,0,0,1,1.968-1.377,2.093,2.093,0,0,1,1.148.326v2.972a2.449,2.449,0,0,1-1.148.326h-.041c1.6,1.848,2.993,3.443,2.993,3.443A5.4,5.4,0,0,1,41.594,32.933ZM15.358,16.987v8.336H4.7V16.987ZM8.8,21.626V18.074H5.93v6.161h8.2V18.074h-2.87v3.552l-1.23-1.232ZM40.488,34.6a4.2,4.2,0,0,1-4.427,3.914A4.177,4.177,0,0,1,31.633,34.6a4.2,4.2,0,0,1,4.427-3.914A4.2,4.2,0,0,1,40.488,34.6Zm-3.361,0a1.115,1.115,0,1,0-1.107.979A1.1,1.1,0,0,0,37.126,34.6Zm-16.807,0a4.2,4.2,0,0,1-4.427,3.914A4.2,4.2,0,0,1,11.464,34.6a4.2,4.2,0,0,1,4.427-3.914A4.177,4.177,0,0,1,20.319,34.6ZM17,34.6a1.115,1.115,0,1,0-1.107.979A1.1,1.1,0,0,0,17,34.6Zm3.28-21.274a2.92,2.92,0,0,0,2.952-2.573h-5.9A2.92,2.92,0,0,0,20.278,13.326ZM24.828,9.3H22.983a2.972,2.972,0,0,0-2.706-1.7,2.878,2.878,0,0,0-2.911,2.428h7.5V9.3Zm4.8,10.474a3.109,3.109,0,0,1,.574.072v-.109a1.485,1.485,0,0,0-1.6-1.45H24.787l-2.952-3.624a2.157,2.157,0,0,0-1.6-.725h-.861A1.921,1.921,0,0,0,17.408,15.5s-.615,5.436-.82,7.285a2.633,2.633,0,0,0,2.706,2.754h4.55v4.893a1.652,1.652,0,0,0,3.28,0V24.525c0-1.45-.82-2.247-2.46-2.247H21.876l.123-2.5,1.271,1.051h4.714A1.717,1.717,0,0,1,29.624,19.777Z" transform="translate(-4.7 -7.6)"/></svg>