<svg xmlns="http://www.w3.org/2000/svg" width="29.365" height="30.914" viewBox="0 0 29.365 30.914"><defs><style>.a{fill:#bd3935;opacity:0.9;}</style></defs><path class="a" d="M32.755,15.728v11.82A2.449,2.449,0,0,1,30.307,30H20.01a1.42,1.42,0,0,1-2.545.757,1.423,1.423,0,0,1-2.687,0,1.423,1.423,0,0,1-2.52-.539,9.925,9.925,0,0,1-5.544,1.7H3.966a.577.577,0,0,1-.576-.577V22.675a.663.663,0,0,1,.268-.539l4.114-3.047a3.546,3.546,0,0,1,2.479-.681v5.154a1.367,1.367,0,0,0,.284.864,1.306,1.306,0,0,0,1.5.4h.016l5.576-2.186a1.6,1.6,0,0,1,2.073.905,1.638,1.638,0,0,1-.68,1.962L16.1,27.365H30.124V20.6H14.188V22.58l-2.63,1.032v-4.1a1.526,1.526,0,0,1,1.525-1.527H30.124V15.911H19.348a1.289,1.289,0,0,1-1.276-1.29v-.063a1.261,1.261,0,0,1,1.235-1.284h11a2.449,2.449,0,0,1,2.448,2.454ZM13.448,5.054a5.886,5.886,0,0,1,1.7.243,1.155,1.155,0,0,0,.334.047A1.205,1.205,0,0,0,15.8,2.975a8.387,8.387,0,0,0-1.72-.256V2.032a1.03,1.03,0,1,0-2.06,0v.836c-2.041.42-3.3,1.77-3.3,3.533,0,2.164,1.89,3.082,3.556,3.64,1.449.489,2.013.946,2.013,1.625S13.6,12.8,12.494,12.8a6.437,6.437,0,0,1-2.082-.36,1.233,1.233,0,0,0-.4-.066,1.182,1.182,0,0,0-1.15.883l-.025.091a1.212,1.212,0,0,0,.8,1.445,9.086,9.086,0,0,0,2.274.413v.823a1.03,1.03,0,1,0,2.06,0v-.962a3.823,3.823,0,0,0,3.465-3.672c0-1.845-.945-2.89-3.3-3.719-1.733-.653-2.287-1.044-2.287-1.606C11.848,5.416,12.431,5.054,13.448,5.054Z" transform="translate(-3.39 -1)"/></svg>