<svg xmlns="http://www.w3.org/2000/svg" width="40.238" height="30.914" viewBox="0 0 40.238 30.914"><defs><style>.a{fill:#bd3935;opacity:0.9;}</style></defs><path class="a" d="M49.674,34.016H47.7L33.5,21.7a.541.541,0,0,0-.724.8L46.013,33.976H14.225L27.463,22.549a.541.541,0,0,0-.724-.8l-14.2,12.272H10.563a.563.563,0,0,0,0,1.127h1.811l5.674,16.98a.573.573,0,0,0,.523.362h23.1a.573.573,0,0,0,.523-.362L47.864,35.1h1.811a.55.55,0,0,0,.563-.563A.542.542,0,0,0,49.674,34.016ZM23.681,51.4,20.945,35.1h1.127l2.736,16.3Zm7,0H29.6V35.1h1.086Zm4.748,0,2.736-16.3h1.086l-2.7,16.3Z" transform="translate(-10 -21.571)"/></svg>