<svg xmlns="http://www.w3.org/2000/svg" width="23.458" height="23.458" viewBox="0 0 23.458 23.458"><defs><style>.a{fill-rule:evenodd;}</style></defs><path class="a" d="M20.592,0a2.867,2.867,0,0,1,2.866,2.866V20.592a2.867,2.867,0,0,1-2.866,2.866H2.866A2.867,2.867,0,0,1,0,20.592V2.866A2.867,2.867,0,0,1,2.866,0H20.592ZM11.729,3.711c-2.178,0-2.451.009-3.306.048a5.884,5.884,0,0,0-1.946.373A4.1,4.1,0,0,0,4.132,6.477a5.887,5.887,0,0,0-.373,1.946c-.039.855-.048,1.128-.048,3.306s.009,2.451.048,3.306a5.887,5.887,0,0,0,.373,1.946,4.1,4.1,0,0,0,2.345,2.345,5.886,5.886,0,0,0,1.946.373c.855.039,1.128.048,3.306.048s2.451-.009,3.306-.048a5.886,5.886,0,0,0,1.946-.373,4.1,4.1,0,0,0,2.345-2.345,5.886,5.886,0,0,0,.373-1.946c.039-.855.048-1.128.048-3.306s-.009-2.451-.048-3.306a5.886,5.886,0,0,0-.373-1.946,4.1,4.1,0,0,0-2.345-2.345,5.884,5.884,0,0,0-1.946-.373c-.855-.039-1.128-.048-3.306-.048Zm0,1.445c2.141,0,2.394.008,3.24.047a4.439,4.439,0,0,1,1.489.276A2.655,2.655,0,0,1,17.979,7a4.437,4.437,0,0,1,.276,1.489c.039.845.047,1.1.047,3.24s-.008,2.394-.047,3.24a4.437,4.437,0,0,1-.276,1.489,2.655,2.655,0,0,1-1.522,1.522,4.437,4.437,0,0,1-1.489.276c-.845.039-1.1.047-3.24.047s-2.395-.008-3.24-.047A4.437,4.437,0,0,1,7,17.979a2.655,2.655,0,0,1-1.522-1.522A4.438,4.438,0,0,1,5.2,14.969c-.039-.845-.047-1.1-.047-3.24s.008-2.394.047-3.24A4.438,4.438,0,0,1,5.479,7,2.655,2.655,0,0,1,7,5.479,4.439,4.439,0,0,1,8.489,5.2c.845-.039,1.1-.047,3.24-.047Zm0,2.456a4.117,4.117,0,1,0,4.117,4.117,4.117,4.117,0,0,0-4.117-4.117Zm0,6.79A2.673,2.673,0,1,1,14.4,11.729,2.673,2.673,0,0,1,11.729,14.4Zm5.242-6.953a.962.962,0,1,1-.962-.962.962.962,0,0,1,.962.962Z"/></svg>