<svg xmlns="http://www.w3.org/2000/svg" width="23.31" height="23.458" viewBox="0 0 23.31 23.458"><g transform="translate(-3.494 -4.667)"><path d="M30.045,27.06v-.036l-.024.036Z" transform="translate(-14.016 -11.813)"/><path d="M25.081,4.667H5.216a1.7,1.7,0,0,0-1.722,1.68v20.1a1.7,1.7,0,0,0,1.722,1.68H25.081a1.7,1.7,0,0,0,1.723-1.68V6.347A1.7,1.7,0,0,0,25.081,4.667ZM10.56,24.3H7.039V13.712H10.56ZM8.8,12.265H8.776a1.835,1.835,0,1,1,.047-3.66,1.836,1.836,0,1,1-.023,3.66ZM23.255,24.3H19.735V18.636c0-1.423-.509-2.395-1.783-2.395a1.928,1.928,0,0,0-1.807,1.288,2.411,2.411,0,0,0-.116.859V24.3H12.508s.046-9.6,0-10.592h3.521v1.5A3.5,3.5,0,0,1,19.2,13.462c2.316,0,4.053,1.514,4.053,4.768V24.3Z"/></g></svg>