<svg xmlns="http://www.w3.org/2000/svg" width="23.458" height="23.458" viewBox="0 0 23.458 23.458"><defs><style>.a{fill-rule:evenodd;}</style></defs><path class="a" d="M20.592,0a2.867,2.867,0,0,1,2.866,2.866V20.592a2.867,2.867,0,0,1-2.866,2.866H15.714V14.619h3.051l.581-3.785H15.714V8.377a1.893,1.893,0,0,1,2.134-2.045H19.5V3.11a20.14,20.14,0,0,0-2.931-.256c-2.991,0-4.946,1.813-4.946,5.095v2.885H8.3v3.785h3.325v8.839H2.866A2.867,2.867,0,0,1,0,20.592V2.866A2.867,2.867,0,0,1,2.866,0H20.592Z"/></svg>