<svg xmlns="http://www.w3.org/2000/svg" width="244" height="244" viewBox="0 0 244 244"><defs><style>.a{fill:#f5b8bc;}.b{fill:#3f3d56;}.c{fill:#fff;}.d{fill:#e6e6e6;}.e{fill:#f50057;}</style></defs><g transform="translate(-273 -1099)"><circle class="a" cx="122" cy="122" r="122" transform="translate(273 1099)"/><path class="b" d="M336.592,144.042h-1.339V107.348a21.237,21.237,0,0,0-21.237-21.237h-77.74a21.237,21.237,0,0,0-21.237,21.237v201.3a21.237,21.237,0,0,0,21.237,21.237h77.74a21.237,21.237,0,0,0,21.237-21.237V170.161h1.339Z" transform="translate(114.308 1012.889)"/><path class="c" d="M326.507,102.606H316.36a7.535,7.535,0,0,1-6.976,10.381H264.847a7.535,7.535,0,0,1-6.976-10.381h-9.478a15.86,15.86,0,0,0-15.86,15.86V319.474a15.86,15.86,0,0,0,15.86,15.86h78.115a15.86,15.86,0,0,0,15.86-15.86V118.466a15.86,15.86,0,0,0-15.86-15.86Z" transform="translate(102.673 1001.919)"/><rect class="d" width="82.401" height="70.677" transform="translate(348.922 1135.924)"/><circle class="e" cx="6.029" cy="6.029" r="6.029" transform="translate(367.345 1209.281)"/><path class="c" d="M128.474,340.746h-2.512v-2.512h-1v2.512h-2.512v1h2.512v2.512h1v-2.512h2.512Z" transform="translate(247.915 874.062)"/><circle class="e" cx="6.029" cy="6.029" r="6.029" transform="translate(399.167 1209.281)"/><rect class="c" width="1.005" height="6.029" transform="translate(408.211 1214.808) rotate(90)"/><rect class="d" width="82.401" height="70.677" transform="translate(348.922 1235.408)"/></g></svg>