<svg xmlns="http://www.w3.org/2000/svg" width="20" height="20" viewBox="0 0 20 20"><defs><style>.a{fill:#bd3935;}</style></defs><g transform="translate(0 0)"><g transform="translate(0 0)"><path class="a" d="M27.226,5.914v-.78a1.587,1.587,0,1,0-1.9-1.561h.635a.952.952,0,1,1,.952.952.317.317,0,0,0-.317.317V5.914l-2.047.845.242.585,2.122-.877,2.122.879.242-.588Z" transform="translate(-16.908 -1.992)"/><path class="a" d="M3.269,10H2.635v.635H2v.635h.635V11.9h.635v-.635H3.9v-.635H3.269Z" transform="translate(-2 -7.441)"/><path class="a" d="M16.269,2h-.635v.635H15v.635h.635V3.9h.635V3.269H16.9V2.635h-.635Z" transform="translate(-10.644 -1.977)"/><path class="a" d="M57.9,10.635h-.635V10h-.635v.635H56v.635h.635V11.9h.635v-.635H57.9Z" transform="translate(-37.904 -7.441)"/><path class="a" d="M44.269,2h-.635v.635H43v.635h.635V3.9h.635V3.269H44.9V2.635h-.635Z" transform="translate(-29.26 -1.977)"/><path class="a" d="M36.933,18.577a1.477,1.477,0,0,0-1.839.2l-1.68,1.678.819.819Z" transform="translate(-22.828 -12.722)"/><path class="a" d="M23.011,20.455l-1.678-1.678a1.48,1.48,0,0,0-1.839-.2l2.7,2.7Z" transform="translate(-13.596 -12.722)"/><path class="a" d="M39,41.269a.952.952,0,1,0,1.9,0V40H39Zm.635-.635h.635v.635h-.635Z" transform="translate(-26.602 -27.002)"/><path class="a" d="M20.871,22.69,17.7,21.447,14.94,24.066a.348.348,0,0,1-.472,0l-.768-.728V26.7h-.669V23.341l-.768.728a.348.348,0,0,1-.472,0L9.028,21.447,5.86,22.69A2.849,2.849,0,0,0,4,25.328v8.661H6.34V26.706a.309.309,0,0,1,.1-.224l.669-.635.472.447-.571.541v7.155h6.021v-.317H13.7v.317h6.021V26.828l-.571-.541.472-.447.669.635a.309.309,0,0,1,.1.224v7.283h2.34V25.32a2.849,2.849,0,0,0-1.86-2.63ZM13.7,33.029h-.669V28.608H13.7Zm0-5.075h-.669V27.32H13.7Zm4.683.635a1.568,1.568,0,0,1-.816,1.427,1.752,1.752,0,0,1-1.712,0,1.568,1.568,0,0,1-.816-1.427V27a.326.326,0,0,1,.335-.317h2.675a.326.326,0,0,1,.335.317Z" transform="translate(-3.365 -13.992)"/></g></g></svg>