<svg xmlns="http://www.w3.org/2000/svg" width="20" height="20" viewBox="0 0 20 20"><defs><style>.a{fill:none;}.b{fill:#b52421;}</style></defs><path class="a" d="M0,0H20V20H0Z"/><path class="b" d="M11.189,7.847a3.341,3.341,0,1,0,3.341,3.341A3.34,3.34,0,0,0,11.189,7.847Zm7.468,2.506a7.513,7.513,0,0,0-6.633-6.633V2H10.353V3.721a7.513,7.513,0,0,0-6.633,6.633H2v1.671H3.721a7.513,7.513,0,0,0,6.633,6.633v1.721h1.671V18.657a7.513,7.513,0,0,0,6.633-6.633h1.721V10.353Zm-7.468,6.683a5.847,5.847,0,1,1,5.847-5.847,5.849,5.849,0,0,1-5.847,5.847Z" transform="translate(-1.189 -1.189)"/></svg>