<svg xmlns="http://www.w3.org/2000/svg" width="11.947" height="15.928" viewBox="0 0 11.947 15.928">
  <g id="location" transform="translate(-4)">
    <path id="Path_4045" data-name="Path 4045" d="M12.989,11.719A2.987,2.987,0,1,0,10,8.733,2.99,2.99,0,0,0,12.989,11.719Zm0-5.475A2.489,2.489,0,1,1,10.5,8.733,2.491,2.491,0,0,1,12.989,6.244Z" transform="translate(-3.014 -2.886)" fill="#333"/>
    <path id="Path_4046" data-name="Path 4046" d="M9.973,0A5.958,5.958,0,0,0,4,5.974c0,3.484,2.987,7.049,5.165,9.554a1.216,1.216,0,0,0,.789.4h.038a1.218,1.218,0,0,0,.789-.4c2.179-2.505,5.165-6.069,5.165-9.554A5.959,5.959,0,0,0,9.973,0Zm.058,14.875a.6.6,0,0,1-.067.049.5.5,0,0,0-.064-.066C8.076,12.758,5,9.216,5,5.974a4.978,4.978,0,1,1,9.956,0C14.952,9.216,11.872,12.758,10.031,14.875Z" fill="#333"/>
  </g>
</svg>
