<svg xmlns="http://www.w3.org/2000/svg" width="42.4" height="46.641" viewBox="0 0 42.4 46.641">
  <g id="_285662_map_icon" data-name="285662_map_icon" transform="translate(-2 -1030.4)">
    <g id="Group_2018" data-name="Group 2018" transform="translate(2 1030.4)">
      <g id="Group_2016" data-name="Group 2016" transform="translate(0 4.24)">
        <path id="Path_2649" data-name="Path 2649" d="M17.6,1032.4,7,1034.1v24.38l10.6-1.7Z" transform="translate(3.6 -1032.4)" fill="#27ae60"/>
        <path id="Path_2650" data-name="Path 2650" d="M12.6,1046.7,2,1049.456v7.42l10.6,1.908Z" transform="translate(-2 -1016.384)" fill="#3498db"/>
        <path id="Path_2651" data-name="Path 2651" d="M2,1032.4v27.561l10.6-2.756V1034.1Z" transform="translate(-2 -1032.4)" fill="#2ecc71"/>
        <path id="Path_2652" data-name="Path 2652" d="M17.6,1044.9,7,1050.412V1060.8l10.6-1.908Z" transform="translate(3.6 -1018.399)" fill="#2980b9"/>
        <path id="Path_2653" data-name="Path 2653" d="M17.6,1041.8,7,1046.676v7.208l10.649-4.24Z" transform="translate(3.6 -1021.872)" fill="#f39c12"/>
        <path id="Path_2654" data-name="Path 2654" d="M8.95,1033.46l5.307,19.5,1.16-.424V1032.4Z" transform="translate(5.784 -1032.4)" fill="#f39c12"/>
        <path id="Path_2655" data-name="Path 2655" d="M12.078,1032.4l5.135,22.9h5.3v-21.2Z" transform="translate(9.288 -1032.4)" fill="#2ecc71"/>
        <path id="Path_2656" data-name="Path 2656" d="M12,1032.4v21.836l5.3-.636-5.135-21.2Z" transform="translate(9.2 -1032.4)" fill="#f1c40f"/>
        <path id="Path_2657" data-name="Path 2657" d="M22.655,1041.3,12,1042.784v8.9l10.6-1.06Z" transform="translate(9.2 -1022.432)" fill="#f1c40f"/>
        <path id="Path_2658" data-name="Path 2658" d="M17,1034.1v17.384l10.6-2.968V1032.4Z" transform="translate(14.8 -1032.4)" fill="#27ae60"/>
        <path id="Path_2659" data-name="Path 2659" d="M27.6,1042.4,17,1047.488V1063.6l10.6-1.908Z" transform="translate(14.8 -1021.199)" fill="#2980b9"/>
        <path id="Path_2660" data-name="Path 2660" d="M22.6,1044.8l-10.594,1.484L12,1059l10.6,1.908Z" transform="translate(9.2 -1018.511)" fill="#3498db"/>
        <path id="Path_2661" data-name="Path 2661" d="M12.6,1044.1,2,1045.8v7l10.6-1.484Z" transform="translate(-2 -1019.295)" fill="#f1c40f"/>
        <path id="Path_2662" data-name="Path 2662" d="M27.6,1039,17,1044.088v7.208l10.6-3.392Z" transform="translate(14.8 -1025.008)" fill="#f39c12"/>
      </g>
      <g id="Group_2017" data-name="Group 2017" transform="translate(2.095)">
        <path id="Path_2663" data-name="Path 2663" d="M14.466,1041.848a4.235,4.235,0,0,0,1.242-2.968,4.369,4.369,0,0,0-1.242-3.18,4.768,4.768,0,0,0-6,0,4.369,4.369,0,0,0-1.242,3.18,4.235,4.235,0,0,0,1.242,2.968,4.169,4.169,0,0,0,6,0m5.482-2.968a7.712,7.712,0,0,1-.547,2.968l-6.028,12.72a1.7,1.7,0,0,1-.8.848,2.2,2.2,0,0,1-1.11.424,2.3,2.3,0,0,1-1.126-.424,1.636,1.636,0,0,1-.762-.848l-6.045-12.72a7.716,7.716,0,0,1-.547-2.968,8.6,8.6,0,0,1,2.484-6.148,8.874,8.874,0,0,1,11.991,0,8.592,8.592,0,0,1,2.484,6.148" transform="translate(-2.988 -1030.4)" fill="#c0392b"/>
      </g>
    </g>
  </g>
</svg>
