<svg xmlns="http://www.w3.org/2000/svg" xmlns:xlink="http://www.w3.org/1999/xlink" width="42.4" height="51.825" viewBox="0 0 42.4 51.825">
  <defs>
    <clipPath id="clip-path">
      <path id="Path_2631" data-name="Path 2631" d="M32.609,24.369l13.9,37.4a2.308,2.308,0,0,0,2.959,1.356l16.359-6.078a2.308,2.308,0,0,0,1.356-2.959l-13.9-37.4a2.308,2.308,0,0,0-2.959-1.356L33.966,21.41A2.308,2.308,0,0,0,32.609,24.369Z" transform="translate(-32.466 -15.188)"/>
    </clipPath>
    <clipPath id="clip-path-2">
      <path id="Path_2639" data-name="Path 2639" d="M97.589,69.461H94.677v9.691h2.912A1.211,1.211,0,0,0,98.8,77.941V70.672A1.211,1.211,0,0,0,97.589,69.461Z" transform="translate(-94.677 -69.461)"/>
    </clipPath>
    <clipPath id="clip-path-3">
      <path id="Path_2641" data-name="Path 2641" d="M88.177,79.152H76.971a4.6,4.6,0,0,1-4.6-4.6v-.485a4.6,4.6,0,0,1,4.6-4.6H88.177a1.151,1.151,0,0,1,1.151,1.151V78A1.151,1.151,0,0,1,88.177,79.152Z" transform="translate(-72.368 -69.461)"/>
    </clipPath>
  </defs>
  <g id="Group_2015" data-name="Group 2015" transform="translate(-28.158 -15.188)">
    <g id="Group_2009" data-name="Group 2009" transform="translate(29.024 15.188)">
      <path id="Path_2626" data-name="Path 2626" d="M46.429,18.69l-16.56,36.3a2.308,2.308,0,0,0,1.139,3.049l15.877,7.243a2.308,2.308,0,0,0,3.049-1.139l16.56-36.3A2.308,2.308,0,0,0,65.356,24.8L49.478,17.552A2.309,2.309,0,0,0,46.429,18.69Z" transform="translate(-29.662 -16.104)" fill="#016938"/>
      <path id="Path_2627" data-name="Path 2627" d="M42.836,20.467,40.708,60.31a2.309,2.309,0,0,0,2.176,2.421l17.426.93a2.309,2.309,0,0,0,2.421-2.176l2.128-39.843a2.309,2.309,0,0,0-2.176-2.421l-17.426-.93A2.309,2.309,0,0,0,42.836,20.467Z" transform="translate(-34.35 -16.505)" fill="#027b38"/>
      <path id="Path_2628" data-name="Path 2628" d="M32.609,24.369l13.9,37.4a2.308,2.308,0,0,0,2.959,1.356l16.359-6.078a2.308,2.308,0,0,0,1.356-2.959l-13.9-37.4a2.308,2.308,0,0,0-2.959-1.356L33.966,21.41A2.308,2.308,0,0,0,32.609,24.369Z" transform="translate(-30.853 -15.188)" fill="#89bc49"/>
      <path id="Path_2629" data-name="Path 2629" d="M32.609,24.369l13.9,37.4a2.308,2.308,0,0,0,2.959,1.356l16.359-6.078a2.308,2.308,0,0,0,1.356-2.959l-13.9-37.4a2.308,2.308,0,0,0-2.959-1.356L33.966,21.41A2.308,2.308,0,0,0,32.609,24.369Z" transform="translate(-30.853 -15.188)" fill="#92c142"/>
      <g id="Group_2008" data-name="Group 2008" transform="translate(1.613)">
        <g id="Group_2007" data-name="Group 2007" clip-path="url(#clip-path)">
          <path id="Path_2630" data-name="Path 2630" d="M36.642,18.609c.066.143.131.285.187.434h0l8.861-3.291v0c-.056-.15-.1-.3-.142-.451l6.467-2.4,2.346,6.315c-.165.08-.331.157-.505.224l11.113,29.91c.176-.063.352-.114.529-.161l2.675,7.2L61.838,58.74a6.339,6.339,0,0,1-.65-1.271h0l-8.861,3.291v0a6.285,6.285,0,0,1,.338,1.387l-6.128,2.277-2.682-7.217c.123-.055.243-.112.37-.159l-11.109-29.9c-.127.047-.256.082-.384.121l-2.352-6.331Zm-1.79,7.553,11.332,30.5a6.311,6.311,0,0,1,5.159,2.363L60.8,55.513A6.314,6.314,0,0,1,63.224,50.3L51.91,19.852a6.314,6.314,0,0,1-5.235-2.363L37.217,21A6.31,6.31,0,0,1,34.852,26.161Z" transform="translate(-31.581 -14.216)" fill="#3c9c36"/>
        </g>
      </g>
      <ellipse id="Ellipse_541" data-name="Ellipse 541" cx="5.317" cy="6.794" rx="5.317" ry="6.794" transform="translate(14.525 31.39) rotate(-110.383)" fill="#3c9c36"/>
      <path id="Path_2632" data-name="Path 2632" d="M48.791,31.675l1.437,3.869A2.637,2.637,0,0,0,53.619,37.1l.26-.1a2.637,2.637,0,0,0,1.554-3.391L54,29.741A2.637,2.637,0,0,0,50.6,28.188l-.26.1A2.638,2.638,0,0,0,48.791,31.675Z" transform="translate(-37.713 -20.637)" fill="#3c9c36"/>
      <path id="Path_2633" data-name="Path 2633" d="M64.38,73.634,65.817,77.5a2.637,2.637,0,0,0,3.391,1.554l.26-.1a2.637,2.637,0,0,0,1.554-3.391L69.585,71.7a2.637,2.637,0,0,0-3.391-1.554l-.26.1A2.638,2.638,0,0,0,64.38,73.634Z" transform="translate(-44.332 -38.451)" fill="#3c9c36"/>
    </g>
    <path id="Path_2634" data-name="Path 2634" d="M67.045,82.011H30.46a2.3,2.3,0,0,1-2.3-2.3V52.815a2.3,2.3,0,0,1,2.3-2.3H67.045a2.3,2.3,0,0,1,2.3,2.3V79.709A2.3,2.3,0,0,1,67.045,82.011Z" transform="translate(0 -14.998)" fill="#b52421"/>
    <path id="Path_2635" data-name="Path 2635" d="M86.507,50.513H84.689a2.423,2.423,0,0,1,2.423,2.423V70.473l-12.83-1.135L86.317,81.373a2.4,2.4,0,0,1-1.627.639h1.817a2.423,2.423,0,0,0,2.423-2.423V52.936A2.424,2.424,0,0,0,86.507,50.513Z" transform="translate(-19.583 -14.998)" fill="#e48316" opacity="0.67"/>
    <path id="Path_2636" data-name="Path 2636" d="M64.625,81.39H63.409a.3.3,0,0,1,0-.605h1.216a.3.3,0,0,1,0,.605Zm-4.257,0H59.152a.3.3,0,0,1,0-.605h1.216a.3.3,0,0,1,0,.605Zm-4.256,0H54.9a.3.3,0,0,1,0-.605h1.216a.3.3,0,0,1,0,.605Zm-4.256,0H50.639a.3.3,0,0,1,0-.605h1.216a.3.3,0,0,1,0,.605Zm-4.256,0H46.381a.3.3,0,0,1,0-.605H47.6a.3.3,0,1,1,0,.605Zm-4.258,0H42.125a.3.3,0,0,1,0-.605h1.216a.3.3,0,0,1,0,.605Zm-4.256,0H37.868a.3.3,0,1,1,0-.605h1.216a.3.3,0,0,1,0,.605Zm-4.256,0h-.016a.909.909,0,0,1-.909-.909v-.265a.3.3,0,1,1,.605,0v.265a.3.3,0,0,0,.3.3.309.309,0,0,1,.311.3A.3.3,0,0,1,34.828,81.39Zm32.837-.007a.3.3,0,0,1-.046-.6.3.3,0,0,0,.256-.3v-.358a.3.3,0,0,1,.605,0v.358a.9.9,0,0,1-.768.9A.315.315,0,0,1,67.664,81.383Zm-33.458-3.9a.3.3,0,0,1-.3-.3V75.959a.3.3,0,1,1,.605,0v1.217A.3.3,0,0,1,34.206,77.479Zm33.971-.094a.3.3,0,0,1-.3-.3V75.865a.3.3,0,1,1,.605,0v1.217A.3.3,0,0,1,68.177,77.385ZM34.206,73.222a.3.3,0,0,1-.3-.3V71.7a.3.3,0,0,1,.605,0v1.216A.3.3,0,0,1,34.206,73.222Zm0-4.256a.3.3,0,0,1-.3-.3V67.446a.3.3,0,0,1,.605,0v1.216A.3.3,0,0,1,34.206,68.965Zm0-4.257a.3.3,0,0,1-.3-.3V63.19a.3.3,0,0,1,.605,0v1.216A.3.3,0,0,1,34.206,64.709Zm0-4.258a.3.3,0,0,1-.3-.3V58.933a.3.3,0,0,1,.605,0v1.216A.3.3,0,0,1,34.206,60.451Zm33.971-.094a.3.3,0,0,1-.3-.3V58.839a.3.3,0,1,1,.605,0v1.216A.3.3,0,0,1,68.177,60.357ZM34.206,56.195a.3.3,0,0,1-.3-.3v-.351a.914.914,0,0,1,.78-.9.307.307,0,0,1,.342.257.3.3,0,0,1-.257.342.3.3,0,0,0-.26.3v.351A.3.3,0,0,1,34.206,56.195ZM68.177,56.1a.3.3,0,0,1-.3-.3v-.257a.3.3,0,0,0-.3-.3.306.306,0,0,1-.307-.3.3.3,0,0,1,.3-.3h.007a.909.909,0,0,1,.909.909V55.8A.3.3,0,0,1,68.177,56.1Zm-3.654-.863H63.307a.3.3,0,1,1,0-.605h1.216a.3.3,0,1,1,0,.605Zm-4.257,0H59.05a.3.3,0,1,1,0-.605h1.216a.3.3,0,1,1,0,.605Zm-4.256,0H54.794a.3.3,0,0,1,0-.605h1.216a.3.3,0,1,1,0,.605Zm-4.256,0H50.536a.3.3,0,1,1,0-.605h1.217a.3.3,0,1,1,0,.605Zm-4.257,0H46.28a.3.3,0,0,1,0-.605H47.5a.3.3,0,1,1,0,.605Zm-4.257,0H42.023a.3.3,0,1,1,0-.605h1.216a.3.3,0,1,1,0,.605Zm-4.256,0H37.765a.3.3,0,1,1,0-.605h1.217a.3.3,0,1,1,0,.605Z" transform="translate(-2.439 -16.747)" fill="#fbca76"/>
    <path id="Path_2637" data-name="Path 2637" d="M29.975,79.587V52.936A2.423,2.423,0,0,1,32.4,50.513H30.581a2.423,2.423,0,0,0-2.423,2.423V79.588a2.423,2.423,0,0,0,2.423,2.423H32.4A2.424,2.424,0,0,1,29.975,79.587Z" transform="translate(0 -14.998)" fill="#f9c187" opacity="0.5"/>
    <path id="Path_2638" data-name="Path 2638" d="M88.177,79.152H76.971a4.6,4.6,0,0,1-4.6-4.6v-.485a4.6,4.6,0,0,1,4.6-4.6H88.177a1.151,1.151,0,0,1,1.151,1.151V78A1.151,1.151,0,0,1,88.177,79.152Z" transform="translate(-18.77 -23.042)" fill="#d17311"/>
    <g id="Group_2011" data-name="Group 2011" transform="translate(66.435 46.419)">
      <g id="Group_2010" data-name="Group 2010" clip-path="url(#clip-path-2)">
        <rect id="Rectangle_819" data-name="Rectangle 819" width="1.817" height="14.774" transform="translate(2.306 -2.204)" fill="#ca6213"/>
      </g>
    </g>
    <g id="Group_2013" data-name="Group 2013" transform="translate(53.598 46.419)">
      <g id="Group_2012" data-name="Group 2012" clip-path="url(#clip-path-3)">
        <path id="Path_2640" data-name="Path 2640" d="M77.794,78.388l3.556,3.5H87.6l-6.619-6.62Z" transform="translate(-74.672 -71.926)" fill="#c56415"/>
      </g>
    </g>
    <g id="Group_2014" data-name="Group 2014" transform="translate(56.021 49.027)">
      <circle id="Ellipse_542" data-name="Ellipse 542" cx="2.237" cy="2.237" r="2.237" fill="#d8b997"/>
      <path id="Path_2642" data-name="Path 2642" d="M77.79,76.255a3.621,3.621,0,0,1,.7-2.2,2.227,2.227,0,0,0,0,4.409A3.621,3.621,0,0,1,77.79,76.255Z" transform="translate(-76.579 -74.018)" fill="#f1d2ae"/>
      <path id="Path_2643" data-name="Path 2643" d="M81.732,76.255a3.621,3.621,0,0,1-.7,2.2,2.227,2.227,0,0,0,0-4.409A3.619,3.619,0,0,1,81.732,76.255Z" transform="translate(-78.47 -74.018)" fill="#c8a57e"/>
    </g>
  </g>
</svg>
