<svg xmlns="http://www.w3.org/2000/svg" width="308.546" height="260.832" viewBox="0 0 308.546 260.832">
  <g id="Group_2131" data-name="Group 2131" transform="translate(-4565.454 11023.339)">
    <g id="Group_2063" data-name="Group 2063" transform="translate(4482 -13589)">
      <g id="Group_2062" data-name="Group 2062" transform="translate(-4618.515 14337.001)">
        <path id="Path_2692" data-name="Path 2692" d="M4314.968-11485.5v-122.061s.509-13.18,13.892-13.307,231.354,0,231.354,0,12.479.367,12.734,12.986,0,122.381,0,122.381" transform="translate(388 -149.424)" fill="none" stroke="#b52421" stroke-width="2"/>
        <path id="Path_2693" data-name="Path 2693" d="M4314.968-11620.924v107.841s.509,11.645,13.892,11.757,231.354,0,231.354,0,12.479-.324,12.734-11.474,0-108.124,0-108.124" transform="translate(388 -9.725)" fill="none" stroke="#b52421" stroke-width="1" stroke-dasharray="6"/>
      </g>
      <path id="Path_2694" data-name="Path 2694" d="M3232.444-11111.968s-.05,1.039,0,2.125c.03,1.107.617,2.677,4.179,2.677h34.467" transform="translate(-2890 13812)" fill="none" stroke="#b52421" stroke-width="2"/>
    </g>
    <path id="Polygon_7" data-name="Polygon 7" d="M7,0l7,12H0Z" transform="translate(4874 -10891) rotate(90)" fill="#b52421"/>
  </g>
</svg>
