<svg xmlns="http://www.w3.org/2000/svg" width="43.401" height="38.719" viewBox="0 0 43.401 38.719">
  <g id="Group_2020" data-name="Group 2020" transform="translate(-4392.5 12212.5)">
    <g id="_1622833_checkmark_done_exam_list_pencil_icon" data-name="1622833_checkmark_done_exam_list_pencil_icon" transform="translate(4393 -12212)">
      <rect id="Rectangle_824" data-name="Rectangle 824" width="26.574" height="32.575" fill="#fff"/>
      <rect id="Rectangle_825" data-name="Rectangle 825" width="26.574" height="32.575" fill="none" stroke="#b52421" stroke-linecap="round" stroke-linejoin="round" stroke-width="1"/>
      <path id="Path_2664" data-name="Path 2664" d="M25.725,37.513H21.788A.79.79,0,0,1,21,36.725V32.788A.79.79,0,0,1,21.788,32h3.938a.79.79,0,0,1,.788.788v3.938A.79.79,0,0,1,25.725,37.513Z" transform="translate(-17.062 -26.093)" fill="#fff"/>
      <path id="Path_2665" data-name="Path 2665" d="M25.647,57.513H21.788A.79.79,0,0,1,21,56.725V52.788A.79.79,0,0,1,21.788,52h3.938a.79.79,0,0,1,.788.788v3.859A.874.874,0,0,1,25.647,57.513Z" transform="translate(-17.062 -38.218)" fill="#fff"/>
      <path id="Path_2666" data-name="Path 2666" d="M25.725,78.513H21.788A.79.79,0,0,1,21,77.725V73.788A.79.79,0,0,1,21.788,73h3.938a.79.79,0,0,1,.788.788v3.938A.79.79,0,0,1,25.725,78.513Z" transform="translate(-17.062 -50.948)" fill="#fff"/>
      <path id="Path_2667" data-name="Path 2667" d="M25.725,37.513H21.788A.79.79,0,0,1,21,36.725V32.788A.79.79,0,0,1,21.788,32h3.938a.79.79,0,0,1,.788.788v3.938A.79.79,0,0,1,25.725,37.513Z" transform="translate(-17.062 -26.093)" fill="none" stroke="#b52421" stroke-linecap="round" stroke-linejoin="round" stroke-width="0.5"/>
      <path id="Path_2668" data-name="Path 2668" d="M25.647,57.513H21.788A.79.79,0,0,1,21,56.725V52.788A.79.79,0,0,1,21.788,52h3.938a.79.79,0,0,1,.788.788v3.859A.874.874,0,0,1,25.647,57.513Z" transform="translate(-17.062 -38.218)" fill="none" stroke="#b52421" stroke-linecap="round" stroke-linejoin="round" stroke-width="0.5"/>
      <path id="Path_2669" data-name="Path 2669" d="M25.725,78.513H21.788A.79.79,0,0,1,21,77.725V73.788A.79.79,0,0,1,21.788,73h3.938a.79.79,0,0,1,.788.788v3.938A.79.79,0,0,1,25.725,78.513Z" transform="translate(-17.062 -50.948)" fill="none" stroke="#b52421" stroke-linecap="round" stroke-linejoin="round" stroke-width="0.5"/>
      <path id="Path_2670" data-name="Path 2670" d="M46.87,54.321V24H26.788a.79.79,0,0,0-.788.788V54.321Z" transform="translate(-20.093 -21.244)" fill="#b52421" opacity="0.2"/>
      <rect id="Rectangle_826" data-name="Rectangle 826" width="26.574" height="32.575" transform="translate(7.715 5.143)" fill="#fff"/>
      <rect id="Rectangle_827" data-name="Rectangle 827" width="26.574" height="32.575" transform="translate(7.715 5.143)" fill="none" stroke="#b52421" stroke-linecap="round" stroke-linejoin="round" stroke-width="1"/>
      <line id="Line_440" data-name="Line 440" x2="4.286" transform="translate(20.574 14.573)" fill="none" stroke="#f5b8bc" stroke-linecap="round" stroke-linejoin="round" stroke-width="2" opacity="0.2"/>
      <line id="Line_441" data-name="Line 441" x2="9.43" transform="translate(20.574 12.001)" fill="none" stroke="#b52421" stroke-linecap="round" stroke-linejoin="round" stroke-width="2" opacity="0.2"/>
      <path id="Path_2671" data-name="Path 2671" d="M46.725,49.513H42.788A.79.79,0,0,1,42,48.725V44.788A.79.79,0,0,1,42.788,44h3.938a.79.79,0,0,1,.788.788v3.938A.79.79,0,0,1,46.725,49.513Z" transform="translate(-29.793 -33.368)" fill="#fff"/>
      <path id="Path_2672" data-name="Path 2672" d="M45.3,49.821l1.142,1.063L48.687,48.6" transform="translate(-31.793 -36.156)" fill="none" stroke="#b52421" stroke-linecap="round" stroke-linejoin="round" stroke-width="0.5"/>
      <line id="Line_442" data-name="Line 442" x2="4.286" transform="translate(20.574 22.288)" fill="none" stroke="#242c88" stroke-linecap="round" stroke-linejoin="round" stroke-width="2" opacity="0.2"/>
      <line id="Line_443" data-name="Line 443" x2="9.43" transform="translate(20.574 19.716)" fill="none" stroke="#242c88" stroke-linecap="round" stroke-linejoin="round" stroke-width="2" opacity="0.2"/>
      <path id="Path_2673" data-name="Path 2673" d="M46.725,69.513H42.788A.79.79,0,0,1,42,68.725V64.788A.79.79,0,0,1,42.788,64h3.859a.874.874,0,0,1,.866.866v3.859A.79.79,0,0,1,46.725,69.513Z" transform="translate(-29.793 -45.492)" fill="#fff"/>
      <path id="Path_2674" data-name="Path 2674" d="M45.3,70.081l1.142,1.063L48.687,68.9" transform="translate(-31.793 -48.463)" fill="none" stroke="#b52421" stroke-linecap="round" stroke-linejoin="round" stroke-width="0.5"/>
      <line id="Line_444" data-name="Line 444" x2="4.286" transform="translate(20.574 30.003)" fill="none" stroke="#242c88" stroke-linecap="round" stroke-linejoin="round" stroke-width="2" opacity="0.2"/>
      <line id="Line_445" data-name="Line 445" x2="9.43" transform="translate(20.574 28.289)" fill="none" stroke="#242c88" stroke-linecap="round" stroke-linejoin="round" stroke-width="2" opacity="0.2"/>
      <path id="Path_2675" data-name="Path 2675" d="M46.725,89.513H42.788A.79.79,0,0,1,42,88.725V84.788A.79.79,0,0,1,42.788,84h3.938a.79.79,0,0,1,.788.788v3.938A.79.79,0,0,1,46.725,89.513Z" transform="translate(-29.793 -57.617)" fill="#fff"/>
      <path id="Path_2676" data-name="Path 2676" d="M46.725,49.513H42.788A.79.79,0,0,1,42,48.725V44.788A.79.79,0,0,1,42.788,44h3.938a.79.79,0,0,1,.788.788v3.938A.79.79,0,0,1,46.725,49.513Z" transform="translate(-29.793 -33.368)" fill="none" stroke="#b52421" stroke-linecap="round" stroke-linejoin="round" stroke-width="0.5"/>
      <path id="Path_2677" data-name="Path 2677" d="M46.725,69.513H42.788A.79.79,0,0,1,42,68.725V64.788A.79.79,0,0,1,42.788,64h3.859a.874.874,0,0,1,.866.866v3.859A.79.79,0,0,1,46.725,69.513Z" transform="translate(-29.793 -45.492)" fill="none" stroke="#b52421" stroke-linecap="round" stroke-linejoin="round" stroke-width="0.5"/>
      <path id="Path_2678" data-name="Path 2678" d="M46.725,89.513H42.788A.79.79,0,0,1,42,88.725V84.788A.79.79,0,0,1,42.788,84h3.938a.79.79,0,0,1,.788.788v3.938A.79.79,0,0,1,46.725,89.513Z" transform="translate(-29.793 -57.617)" fill="none" stroke="#b52421" stroke-linecap="round" stroke-linejoin="round" stroke-width="0.5"/>
      <path id="Path_2679" data-name="Path 2679" d="M71.478,57.6l-13.31,7.836L53.6,72.288l8.191-.709,9.687-5.71Z" transform="translate(-36.825 -41.612)" fill="#242c88" opacity="0.2"/>
      <g id="Group_2019" data-name="Group 2019" transform="translate(16.972 5.129)">
        <path id="Path_2680" data-name="Path 2680" d="M76.664,42.34,61.858,57.147,54.1,59.864l2.717-7.758L71.623,37.3Z" transform="translate(-54.1 -34.435)" fill="#fff"/>
        <rect id="Rectangle_828" data-name="Rectangle 828" width="20.949" height="7.127" transform="translate(2.722 17.698) rotate(-45)" fill="#282c3f"/>
        <rect id="Rectangle_829" data-name="Rectangle 829" width="20.949" height="2.087" transform="translate(6.274 21.257) rotate(-45)" fill="#242c88" opacity="0.2"/>
        <path id="Path_2681" data-name="Path 2681" d="M55.281,86,54.1,89.308l3.308-1.181Z" transform="translate(-54.1 -63.958)" fill="#282c3f"/>
        <path id="Path_2682" data-name="Path 2682" d="M76.664,42.34,61.858,57.147,54.1,59.864l2.717-7.758L71.623,37.3Z" transform="translate(-54.1 -34.435)" fill="none" stroke="#b52421" stroke-linecap="round" stroke-linejoin="round" stroke-width="1"/>
        <path id="Path_2683" data-name="Path 2683" d="M103.64,37.93,106,35.567a1.641,1.641,0,0,0,0-2.363l-2.678-2.678a1.641,1.641,0,0,0-2.363,0L98.6,32.89Z" transform="translate(-81.077 -30.025)" fill="#282c3f"/>
        <path id="Path_2684" data-name="Path 2684" d="M103.64,37.93,106,35.567a1.641,1.641,0,0,0,0-2.363l-2.678-2.678a1.641,1.641,0,0,0-2.363,0L98.6,32.89Z" transform="translate(-81.077 -30.025)" fill="none" stroke="#b52421" stroke-linecap="round" stroke-linejoin="round" stroke-width="1"/>
        <line id="Line_446" data-name="Line 446" y1="10.356" x2="10.356" transform="translate(10.435 6.724)" fill="none" stroke="#b52421" stroke-linecap="round" stroke-linejoin="round" stroke-width="1"/>
        <line id="Line_447" data-name="Line 447" y1="2.402" x2="2.402" transform="translate(6.261 18.852)" fill="none" stroke="#b52421" stroke-linecap="round" stroke-linejoin="round" stroke-width="1"/>
        <rect id="Rectangle_830" data-name="Rectangle 830" width="2.914" height="7.127" transform="translate(16.357 4.081) rotate(-45)" fill="#fff"/>
        <rect id="Rectangle_831" data-name="Rectangle 831" width="2.914" height="7.127" transform="translate(16.357 4.081) rotate(-45)" fill="#242c88" opacity="0.2"/>
        <rect id="Rectangle_832" data-name="Rectangle 832" width="2.914" height="7.127" transform="translate(16.357 4.081) rotate(-45)" fill="none" stroke="#b52421" stroke-linecap="round" stroke-linejoin="round" stroke-width="1"/>
      </g>
    </g>
  </g>
</svg>
