<svg xmlns="http://www.w3.org/2000/svg" width="28.85" height="20.001" viewBox="0 0 28.85 20.001"><defs><style>.a{fill:#bd3935;}</style></defs><g transform="translate(0 0)"><g transform="translate(18.153 12.728)"><path class="a" d="M325.788,304.4a3.637,3.637,0,1,0,3.637,3.637A3.641,3.641,0,0,0,325.788,304.4Zm0,5.455a1.818,1.818,0,1,1,1.818-1.818A1.82,1.82,0,0,1,325.788,309.858Z" transform="translate(-322.151 -304.403)"/></g><g transform="translate(5.728 12.728)"><path class="a" d="M105.284,304.4a3.637,3.637,0,1,0,3.637,3.637A3.641,3.641,0,0,0,105.284,304.4Zm0,5.455a1.818,1.818,0,1,1,1.818-1.818A1.82,1.82,0,0,1,105.284,309.858Z" transform="translate(-101.647 -304.403)"/></g><g transform="translate(18.638 1.818)"><g transform="translate(0 0)"><path class="a" d="M336.357,111.291a.91.91,0,0,0-.813-.5h-4.788v1.818h4.227l2.476,4.924,1.625-.817Z" transform="translate(-330.756 -110.79)"/></g></g><g transform="translate(12.183 15.486)"><rect class="a" width="6.879" height="1.818"/></g><g transform="translate(2.576 15.486)"><path class="a" d="M49.776,353.345H46.624a.909.909,0,1,0,0,1.818h3.152a.909.909,0,1,0,0-1.818Z" transform="translate(-45.715 -353.345)"/></g><g transform="translate(2.576 0)"><g transform="translate(0 0)"><path class="a" d="M71.8,88.449l-1.788-2.3a.908.908,0,0,0-.718-.352H62.686V79.43a.909.909,0,0,0-.909-.909H46.624a.909.909,0,1,0,0,1.818H60.867V86.7a.909.909,0,0,0,.909.909h7.07l1.324,1.706v4.689H67.656a.909.909,0,0,0,0,1.818H71.08a.909.909,0,0,0,.909-.909V89.007A.911.911,0,0,0,71.8,88.449Z" transform="translate(-45.715 -78.521)"/></g></g><g transform="translate(1.485 10.88)"><g transform="translate(0 0)"><path class="a" d="M31.444,271.6H27.262a.909.909,0,1,0,0,1.818h4.182a.909.909,0,0,0,0-1.818Z" transform="translate(-26.353 -271.597)"/></g></g><g transform="translate(0 7.303)"><g transform="translate(0 0)"><path class="a" d="M8.667,208.134H.909a.909.909,0,0,0,0,1.818H8.667a.909.909,0,0,0,0-1.818Z" transform="translate(0 -208.134)"/></g></g><g transform="translate(1.485 3.727)"><g transform="translate(0 0)"><path class="a" d="M35.02,144.672H27.262a.909.909,0,0,0,0,1.818H35.02a.909.909,0,1,0,0-1.818Z" transform="translate(-26.353 -144.672)"/></g></g></g></svg>