<svg xmlns="http://www.w3.org/2000/svg" width="348.952" height="267.226" viewBox="0 0 348.952 267.226"><defs><style>.a,.b{fill:#f50057;}.a,.d,.m,.q{opacity:0.1;}.c,.j{fill:none;}.c{stroke:#565987;stroke-miterlimit:10;}.e{fill:#ffd037;}.f{fill:#a8a8a8;}.g{opacity:0.2;}.h{fill:#efb7b9;}.i{opacity:0.05;}.k{fill:#65617d;}.l{fill:#dce0ed;}.m,.t{fill:#fff;}.n{fill:#444053;}.o{fill:#a36468;}.p{fill:#965d7b;}.r{fill:#dda2a6;}.s{fill:#b77b7f;}.t{opacity:0.3;}</style></defs><g transform="translate(0 -0.006)"><path class="a" d="M470.089,117.754A84.983,84.983,0,0,0,456.25,95.7L264.212,93.806,422.322,71.6a89.819,89.819,0,0,0-32.081-6.363A89.914,89.914,0,0,0,282.834,61.6a89.528,89.528,0,0,0-41.107-9.911c-42.669,0-78.223,29.554-86.2,68.741Z" transform="translate(-127.889 -45.55)"/><path class="a" d="M420.812,300.711a83.022,83.022,0,0,0-5.983-31.021L82.005,304.626a83.58,83.58,0,0,0-7.787,19.693L177.291,339.68,71.86,350.883c3.171,44.364,41.2,79.4,87.661,79.4A88.946,88.946,0,0,0,219.9,406.925a88.944,88.944,0,0,0,60.889,23.822c35.074,0,65.345-19.97,79.442-48.844,28.282-8.976,50.251-31.513,57.77-59.709l-130.34-20.215H420.8C420.806,301.557,420.812,301.134,420.812,300.711Z" transform="translate(-71.86 -195.639)"/><ellipse class="a" cx="8.53" cy="1.173" rx="8.53" ry="1.173" transform="translate(0.757 242.901)"/><ellipse class="a" cx="8.53" cy="1.173" rx="8.53" ry="1.173" transform="translate(33.432 246.215)"/><ellipse class="a" cx="8.53" cy="1.173" rx="8.53" ry="1.173" transform="translate(71.923 241.728)"/><ellipse class="a" cx="6.065" cy="0.833" rx="6.065" ry="0.833" transform="translate(22.818 255.99)"/><ellipse class="a" cx="6.065" cy="0.833" rx="6.065" ry="0.833" transform="translate(56.736 255.157)"/><path class="b" d="M189.7,662.281s-11.966-39.22,1.87-54.929c10.353-11.754,22.1-10.347,27.364-8.893a9.726,9.726,0,0,1,6.277,5.216c1.84,3.964,1.506,10.41-11.48,17.929-21.744,12.59-23.1,29.858-23.1,29.858Z" transform="translate(-147.554 -415.158)"/><path class="c" d="M224.458,617.23s-35.269,11.027-27.36,58.259" transform="translate(-154.95 -428.366)"/><path class="c" d="M219.91,629.2s4.856,3.27,3.3,8.19" transform="translate(-171 -436.382)"/><path class="c" d="M258.211,634.239s-2.973-3.02-6.581-1.354" transform="translate(-192.241 -438.513)"/><path class="c" d="M216.051,681.971s-5.213-2.643-6.561.661" transform="translate(-164.023 -471.049)"/><path class="c" d="M190.3,700.641s3.915-.31,3.987,1.563" transform="translate(-151.172 -484.208)"/><path class="b" d="M198,737.992s14.014-28.507,17.863-27.882c1.827.3,2.669,2.095,3.052,3.9a11.5,11.5,0,0,1-.763,6.957C216.17,725.511,210.811,734.183,198,737.992Z" transform="translate(-156.328 -490.555)"/><path class="c" d="M216.149,726.51s-14.708,21.328-17.549,22.263" transform="translate(-156.73 -501.544)"/><line class="c" x1="3.432" transform="translate(57.341 228.293)"/><line class="c" x1="5.378" y2="0.231" transform="translate(51.282 236.096)"/><line class="c" x2="0.585" y2="2.801" transform="translate(53.386 229.855)"/><line class="c" x2="0.106" y2="2.547" transform="translate(47.664 238.385)"/><path class="b" d="M156.376,737.992s-14.014-28.507-17.863-27.882c-1.827.3-2.669,2.095-3.053,3.9a11.473,11.473,0,0,0,.766,6.938C138.213,725.511,143.555,734.183,156.376,737.992Z" transform="translate(-114.298 -490.555)"/><path class="c" d="M145.48,726.51s14.708,21.328,17.549,22.263" transform="translate(-121.159 -501.544)"/><line class="c" x2="3.432" transform="translate(22.97 228.293)"/><line class="c" x2="5.382" y2="0.231" transform="translate(27.08 236.096)"/><line class="c" x1="0.585" y2="2.801" transform="translate(29.772 229.855)"/><line class="c" x1="0.106" y2="2.547" transform="translate(35.973 238.385)"/><path class="b" d="M256.339,806.869a2.431,2.431,0,0,0,.8-1.2,1.07,1.07,0,0,0-.558-1.226c-.512-.2-1.06.159-1.473.515a1.979,1.979,0,0,1-1.434.694,2.184,2.184,0,0,0,.661-2.042.852.852,0,0,0-.185-.416c-.284-.3-.8-.172-1.14.066a4.242,4.242,0,0,0-1.391,3.555,6.765,6.765,0,0,1-.02-1.463,1.5,1.5,0,0,0-.552-1.3,1.613,1.613,0,0,0-.836-.2,1.8,1.8,0,0,0-1.361.387,1.353,1.353,0,0,0,.053,1.672,5.322,5.322,0,0,0,1.407,1.127,3.142,3.142,0,0,1,.991.958,1,1,0,0,1,.073.172h3.049A8.455,8.455,0,0,0,256.339,806.869Z" transform="translate(-190.201 -552.775)"/><path class="b" d="M94.7,772.117a2.425,2.425,0,0,0,.8-1.2,1.077,1.077,0,0,0-.558-1.229c-.512-.2-1.057.162-1.473.519a1.975,1.975,0,0,1-1.434.69,2.174,2.174,0,0,0,.661-2.042.863.863,0,0,0-.188-.413c-.284-.3-.8-.175-1.14.066a4.242,4.242,0,0,0-1.391,3.555,6.8,6.8,0,0,1-.02-1.467,1.486,1.486,0,0,0-.548-1.292,1.626,1.626,0,0,0-.839-.2,1.727,1.727,0,0,0-1.361.387,1.328,1.328,0,0,0,.053,1.652,5.235,5.235,0,0,0,1.411,1.13,3.1,3.1,0,0,1,.991.958,1.168,1.168,0,0,1,.076.172h3.049A8.512,8.512,0,0,0,94.7,772.117Z" transform="translate(-81.963 -529.503)"/><path class="b" d="M148.579,806.869a2.432,2.432,0,0,0,.8-1.2,1.07,1.07,0,0,0-.558-1.226c-.512-.2-1.06.159-1.473.515a1.979,1.979,0,0,1-1.434.694,2.183,2.183,0,0,0,.661-2.042.852.852,0,0,0-.185-.416c-.284-.3-.8-.172-1.14.066a4.242,4.242,0,0,0-1.391,3.555,6.765,6.765,0,0,1-.02-1.464,1.492,1.492,0,0,0-.548-1.3,1.631,1.631,0,0,0-.839-.2,1.805,1.805,0,0,0-1.361.387,1.353,1.353,0,0,0,.053,1.672,5.325,5.325,0,0,0,1.407,1.127,3.141,3.141,0,0,1,.991.958.994.994,0,0,1,.073.172h3.049a8.453,8.453,0,0,0,1.916-1.3Z" transform="translate(-118.041 -552.775)"/><path class="b" d="M310.7,744.43s1.143,1.5-.529,3.753-3.046,4.163-2.491,5.57c0,0,2.521-4.192,4.572-4.252S312.952,746.951,310.7,744.43Z" transform="translate(-229.688 -513.544)"/><path class="d" d="M310.829,744.43a1.9,1.9,0,0,1,.235.469c2,2.352,3.066,4.546,1.143,4.6-1.794.053-3.941,3.257-4.457,4.067.016.063.036.122.06.185,0,0,2.521-4.192,4.572-4.252S313.085,746.951,310.829,744.43Z" transform="translate(-229.821 -513.544)"/><path class="e" d="M322.964,749.519c0,.525-.059.951-.132.951s-.132-.426-.132-.951.076-.278.149-.278S322.964,748.994,322.964,749.519Z" transform="translate(-239.833 -516.727)"/><path class="e" d="M323.884,751.359c-.462.251-.866.4-.9.33s.311-.33.773-.572.277-.069.314,0S324.347,751.108,323.884,751.359Z" transform="translate(-240.022 -517.939)"/><path class="b" d="M293.6,744.43s-1.143,1.5.529,3.753,3.049,4.163,2.491,5.57c0,0-2.521-4.192-4.572-4.252S291.355,746.951,293.6,744.43Z" transform="translate(-218.63 -513.544)"/><path class="d" d="M293.6,744.43a1.833,1.833,0,0,0-.231.469c-2,2.352-3.069,4.546-1.146,4.6,1.794.053,3.945,3.257,4.46,4.067-.02.063-.04.122-.063.185,0,0-2.521-4.192-4.572-4.252S291.355,746.951,293.6,744.43Z" transform="translate(-218.629 -513.544)"/><path class="e" d="M292.36,749.519c0,.525.059.951.132.951s.132-.426.132-.951-.073-.278-.145-.278S292.36,748.994,292.36,749.519Z" transform="translate(-219.516 -516.727)"/><path class="e" d="M289.559,751.359c.462.251.866.4.9.33s-.314-.33-.773-.572-.281-.069-.33,0S289.1,751.108,289.559,751.359Z" transform="translate(-217.445 -517.939)"/><path class="f" d="M293.46,768.549s3.2-.1,4.159-.783,4.916-1.506,5.157-.406,4.8,5.471,1.193,5.5-8.381-.562-9.343-1.146S293.46,768.549,293.46,768.549Z" transform="translate(-220.252 -528.539)"/><path class="g" d="M304.035,775.971c-3.608.03-8.385-.562-9.346-1.146-.733-.446-1.024-2.045-1.12-2.785h-.109s.2,2.58,1.166,3.165,5.735,1.176,9.343,1.146c1.044,0,1.4-.38,1.381-.928C305.2,775.76,304.808,775.965,304.035,775.971Z" transform="translate(-220.252 -532.033)"/><ellipse class="a" cx="108.827" cy="4.936" rx="108.827" ry="4.936" transform="translate(93.482 257.361)"/><path class="h" d="M626.551,390.161s6.938,13.125,7.476,15a2.531,2.531,0,0,0,2.339,1.87s6.911,1.652,8.563,1.873,15.97,1.43,15.97,1.43,3.634.112,4.073-1.209c.4-1.209,7.423-7.562,11.487-2.018a4.04,4.04,0,0,1,.588,3.608c-.747,2.379-2.279,6.155-3.925,3.806-2.313-3.3-5-2.375-5-.615s-3.7,1.107-4.909,1.354c-.661.135-2.934.74-4.9,1.269a35.686,35.686,0,0,1-6.977,1.16c-3.9.254-9.653.466-11.691-.3-2.461-.935-6.753-1.15-8.589-1.2a2.825,2.825,0,0,1-1.675-.6,26.127,26.127,0,0,1-6.359-7.232c-2.864-4.955-8.755-15.216-8.358-18.19S626.551,390.161,626.551,390.161Z" transform="translate(-435.329 -275.427)"/><path class="i" d="M626.551,390.161s6.938,13.125,7.476,15a2.531,2.531,0,0,0,2.339,1.87s6.911,1.652,8.563,1.873,15.97,1.43,15.97,1.43,3.634.112,4.073-1.209c.4-1.209,7.423-7.562,11.487-2.018a4.04,4.04,0,0,1,.588,3.608c-.747,2.379-2.279,6.155-3.925,3.806-2.313-3.3-5-2.375-5-.615s-3.7,1.107-4.909,1.354c-.661.135-2.934.74-4.9,1.269a35.686,35.686,0,0,1-6.977,1.16c-3.9.254-9.653.466-11.691-.3-2.461-.935-6.753-1.15-8.589-1.2a2.825,2.825,0,0,1-1.675-.6,26.127,26.127,0,0,1-6.359-7.232c-2.864-4.955-8.755-15.216-8.358-18.19S626.551,390.161,626.551,390.161Z" transform="translate(-435.329 -275.427)"/><path class="j" d="M842.6,572.465c-3.142,3.416-5.454,4.76-5.345,1.156.33-10.9-18.831-60.192-18.831-60.192l5.666-.43C836.451,534.3,841.05,556.214,842.6,572.465Z" transform="translate(-571.787 -358.569)"/><path class="k" d="M862.919,709.708a27.255,27.255,0,0,1-54.407,2.313c-.04-.443-.069-.885-.083-1.321v-.023q-.02-.492-.02-.991a27.255,27.255,0,1,1,54.509,0Z" transform="translate(-565.084 -472.026)"/><circle class="l" cx="14.866" cy="14.866" r="14.866" transform="translate(255.715 222.799)"/><circle class="k" cx="8.92" cy="8.92" r="8.92" transform="translate(261.661 228.745)"/><path class="k" d="M541.219,567.707l-65.629,1.321v-9.673c.588-7.787,8.589-10.519,15.857-11.374a45.516,45.516,0,0,1,16.957,1.272c13.925,3.687,22.795,4.4,27.165,4.47a4.166,4.166,0,0,1,4.03,3.39c.208,1.107.413,2.313.6,3.5.145.932.284,1.85.41,2.706C540.978,565.784,541.219,567.707,541.219,567.707Z" transform="translate(-342.214 -381.8)"/><path class="b" d="M545.605,597.982H409.269a5.368,5.368,0,0,1-4.972-3.214c-1.027-2.455.41-4.021,1.943-4.939a15.444,15.444,0,0,0,6.713-8.213c1.454-4.295,2.874-11.014,3.432-21.513.575-10.859,4.506-16.227,8.755-18.831h0a17.333,17.333,0,0,1,11.5-2.1l55.279.443a10.621,10.621,0,0,1,2.7,1.761c4.926,4.585-2.256,10.572-2.256,10.572-15.418,16.3-3.746,32.815-3.746,32.815H516.9a26.03,26.03,0,0,0,14.817-4.536c3.822-2.643,5.286-5.2,5.874-6.743.436-1.183.879-2.362,1.407-3.505,7.42-16.092-1.53-42.269-5.391-52.058-.958-2.435-1.6-3.855-1.6-3.855l8.87-.661,5.616-.426h.056c12.362,21.321,16.957,43.231,18.5,59.465.145,1.53.264,3.013.36,4.437a19.822,19.822,0,0,1-19.8,21.1Z" transform="translate(-294.241 -358.556)"/><path class="d" d="M540.618,589.516H475.59V586.81h64.618C540.354,587.725,540.492,588.643,540.618,589.516Z" transform="translate(-342.214 -407.995)"/><path class="d" d="M537.581,594.065H468.622a1.322,1.322,0,0,1-.522-.106,17.334,17.334,0,0,1,11.5-2.1l55.279.443A10.623,10.623,0,0,1,537.581,594.065Z" transform="translate(-337.198 -411.223)"/><rect class="l" width="96.366" height="2.706" rx="1.353" transform="translate(105.943 179.459)"/><path class="d" d="M842.6,572.465c-3.142,3.416-5.454,4.76-5.345,1.156.33-10.9-18.831-60.192-18.831-60.192l5.666-.43C836.451,534.3,841.05,556.214,842.6,572.465Z" transform="translate(-571.787 -358.569)"/><path class="d" d="M862.8,706.771c-3.254.78-7.268,1.573-12.223,2.313q-2.765.406-5.947.78c-5.064.6-10.922,1.126-17.687,1.53q-2.874.172-5.97.314-5.8.264-12.412.4l-.083-1.321v-.023c6.161-2.488,15.857-9.125,17.417-26.412A27.268,27.268,0,0,1,862.8,706.8Z" transform="translate(-565.13 -472.093)"/><path class="b" d="M792.92,666.774s31.285-3.4,20.509-51.064c0,0,15.458,14.172,25.074,22.048s26.759,18.735,26.759,18.735S855.028,666.057,792.92,666.774Z" transform="translate(-554.711 -427.348)"/><path class="m" d="M792.92,666.774s31.285-3.4,20.509-51.064c0,0,15.458,14.172,25.074,22.048s26.759,18.735,26.759,18.735S855.028,666.057,792.92,666.774Z" transform="translate(-554.711 -427.348)"/><circle class="k" cx="27.255" cy="27.255" r="27.255" transform="translate(127.374 210.41)"/><circle class="l" cx="14.866" cy="14.866" r="14.866" transform="translate(139.762 222.799)"/><circle class="k" cx="8.92" cy="8.92" r="8.92" transform="translate(145.708 228.745)"/><path class="d" d="M505.858,675.577c0-17.6-13.978-31.867-31.219-31.867s-31.219,14.268-31.219,31.867q0,1.117.076,2.21h62.286Q505.858,676.693,505.858,675.577Z" transform="translate(-320.671 -446.098)"/><path class="b" d="M507.045,676.307c0-16.947-13.459-30.687-30.063-30.687s-30.063,13.74-30.063,30.687c0,.717.026,1.424.073,2.128h59.98C507.019,677.731,507.045,677.024,507.045,676.307Z" transform="translate(-323.015 -447.377)"/><path class="m" d="M507.046,676.307c0,.492,0,.991-.036,1.467,0,.221-.023.439-.036.661h-59.98c0-.221-.026-.439-.036-.661-.023-.486-.036-.991-.036-1.467,0-16.947,13.459-30.687,30.063-30.687S507.046,659.36,507.046,676.307Z" transform="translate(-323.015 -447.377)"/><path class="d" d="M507.083,743c0,.221-.023.439-.036.661h-59.98c0-.221-.026-.439-.036-.661Z" transform="translate(-323.089 -512.587)"/><rect class="d" width="80.766" height="7.047" rx="3.523" transform="translate(110.753 231.718)"/><rect class="l" width="80.766" height="7.047" rx="3.523" transform="translate(110.753 231.058)"/><ellipse class="d" cx="3.958" cy="9.964" rx="3.958" ry="9.964" transform="translate(253.617 168.573) rotate(-24.33)"/><ellipse class="l" cx="3.958" cy="9.964" rx="3.958" ry="9.964" transform="translate(253.947 168.242) rotate(-24.33)"/><path class="d" d="M806.07,513v5.177H795.994a17.36,17.36,0,0,1-2.8-.225c-.958-2.435-1.6-3.855-1.6-3.855l8.87-.661Z" transform="translate(-553.82 -358.569)"/><path class="b" d="M782.518,463.9H772.443c-8.85,0-16.022-6.607-16.022-14.79v-1.371c0-8.166,7.172-14.787,16.022-14.787l10.076.915Z" transform="translate(-530.269 -304.965)"/><path class="b" d="M763.239,458.78s6.029,3.221,2.56,8.672c0,0-4.255,6.977-10.945,6.316L752.42,458.78S760.431,458.037,763.239,458.78Z" transform="translate(-527.59 -322.04)"/><path class="d" d="M760.937,458.481a6.409,6.409,0,0,1,4.9,2.583,5.28,5.28,0,0,1-.02,6.379s-4.255,6.977-10.945,6.316l-2.435-14.988A71.092,71.092,0,0,1,760.937,458.481Z" transform="translate(-527.604 -322.032)"/><path class="d" d="M762.56,390.17H764.5a6.151,6.151,0,0,1,6.151,6.151v17.734a6.151,6.151,0,0,1-6.151,6.151H762.56Z" transform="translate(-510.641 -261.27)"/><path class="l" d="M763.56,390.17H765.5a6.151,6.151,0,0,1,6.151,6.151v17.734a6.151,6.151,0,0,1-6.151,6.151H763.56Z" transform="translate(-511.31 -261.27)"/><path class="h" d="M618.88,521.931s1.556.568,3.634,1.361a82.267,82.267,0,0,1,9.581,4.146c1.619,1.017,7.654,2.689,12.174,3.865a39.646,39.646,0,0,0,10.261,1.265c3.515-.033,7.773-.066,8.95-.066a3.706,3.706,0,0,1,.614.046c1.236.2,1.186,1.034,1.156,1.232v.043c-7.268,4.4-16.079,24.116-16.627,27.42-.413,2.478-4.044,9.346-5.834,12.63-.6,1.1-.991,1.8-.991,1.8L644,578.2l6.386,2.864,6.056,2.643s6.389.33,6.5,0,.109-3.743.109-3.743a18.035,18.035,0,0,1-2.207-1.678,36.5,36.5,0,0,1-4.07-4.159c-3.522-4.186,3.525-12.223,3.525-12.223l13.545-17.618s1.1-1.982,6.386-9.911,0-12.223,0-12.223l-9.3-3.862c-16.135-6.039-35.6-10.879-35.6-10.879l-.277-.036-4.126-.515Z" transform="translate(-438.167 -354.458)"/><path class="n" d="M702.82,717.765s1.156,1.364.291,1.487a14.389,14.389,0,0,1-3.138-.37l-14.414-7.6s-1.569-1.117-1.939,1.074-.621,1.982-.621,1.982-1.9,4.087,0,4.932,13.31,4.192,13.31,4.192,16.561,3.76,18.13-.578-2.808-3.591-2.808-3.591-5.451-1.321-7.311-3.964C704.307,715.33,701.624,716.073,702.82,717.765Z" transform="translate(-480.538 -491.157)"/><path class="i" d="M680.215,522.152l-9.3-3.862c-16.135-6.039-35.6-10.879-35.6-10.879l-.278-.036-4.126-.515L618.88,521.931s1.556.568,3.634,1.361a82.287,82.287,0,0,1,9.581,4.146c1.619,1.017,7.654,2.689,12.174,3.865a39.651,39.651,0,0,0,10.261,1.265c3.515-.033,7.773-.066,8.95-.066a3.726,3.726,0,0,1,.614.046c1.236.2,1.186,1.034,1.156,1.232v.043c-7.268,4.4-16.079,24.116-16.627,27.42-.413,2.478-4.044,9.346-5.834,12.63l-.241.443c-.479-.079-1.077.093-1.288,1.341-.373,2.187-.621,1.982-.621,1.982s-1.9,4.087,0,4.932,13.3,4.192,13.3,4.192,16.561,3.76,18.13-.578-2.808-3.591-2.808-3.591-5.451-1.321-7.311-3.964a3.633,3.633,0,0,0-.482.178c-.195-.158-.4-.33-.624-.522a36.5,36.5,0,0,1-4.07-4.159c-3.522-4.186,3.525-12.223,3.525-12.223l13.545-17.618s1.1-1.982,6.386-9.911S680.215,522.152,680.215,522.152Z" transform="translate(-438.167 -354.458)"/><path class="h" d="M585.3,293.586l.5.634.281.354,1.751,2.2s4.179,1.341,7.843,2.21c3.816.9,7.07,1.3,4.483-.862-1.606-1.338-1.711-3.578-1.127-5.979a24.743,24.743,0,0,1,2.1-5.319q.2-.377.387-.733a44.057,44.057,0,0,1,2.722-4.4,78.165,78.165,0,0,0-7.3-4.483c-3.026-1.566-5.51-2.25-3.935.849,1.011,1.982.68,4.209-.264,6.34-.073.168-.152.33-.235.505a22.723,22.723,0,0,1-3.119,4.589A36.208,36.208,0,0,1,585.3,293.586Z" transform="translate(-415.68 -199.79)"/><path class="n" d="M570.3,436.24l2.24,2.045,2.164,8.325H571.1l-3.987-5.187Z" transform="translate(-379.76 -292.12)"/><path class="d" d="M567.11,441.423l2.412,3.135,1.576,2.052h3.611l-.37-1.424-1.576-6.065-.218-.836-2.24-2.045-3.059,4.962Z" transform="translate(-379.76 -292.12)"/><path class="d" d="M567.11,441.423l2.412,3.135,1.576,2.052h3.611l-.37-1.424-1.576-6.065-.218-.836-2.24-2.045-3.059,4.962Z" transform="translate(-379.76 -292.12)"/><path class="h" d="M602.64,527.629s1.556.568,3.634,1.361a82.28,82.28,0,0,1,9.581,4.146c1.619,1.018,7.654,2.689,12.174,3.865a39.646,39.646,0,0,0,10.261,1.269c3.515-.033,7.773-.066,8.949-.066a3.693,3.693,0,0,1,.615.046c1.235.2,1.186,1.034,1.156,1.232v.043c-7.268,4.4-16.079,24.116-16.627,27.42-.413,2.478-4.044,9.346-5.834,12.63-.6,1.1-.991,1.8-.991,1.8l2.2,2.531,6.383,2.861,6.055,2.643s6.389.33,6.5,0,.109-3.743.109-3.743a18.052,18.052,0,0,1-2.207-1.678,36.5,36.5,0,0,1-4.07-4.159c-3.522-4.186,3.525-12.223,3.525-12.223L657.6,549.985s1.1-1.982,6.386-9.911,0-12.223,0-12.223L655.507,523c-13.214-8.038-31.827-12.663-31.827-12.663l-.277-.036-4.126-.515Z" transform="translate(-427.292 -356.42)"/><path class="d" d="M672,722.8l2.2,2.53,6.386,2.864,6.055,2.643s6.389.33,6.5,0,.109-3.743.109-3.743a18.037,18.037,0,0,1-2.207-1.678c-.684.367-1.46,1.054-.71,2.118,0,0,1.156,1.361.291,1.487a14.184,14.184,0,0,1-3.138-.37l-14.414-7.6-.083-.056Z" transform="translate(-473.738 -497.854)"/><path class="n" d="M686.58,729.071s1.156,1.361.287,1.487a14.105,14.105,0,0,1-3.138-.373l-14.41-7.6s-1.569-1.113-1.942,1.074-.618,1.982-.618,1.982-1.9,4.09,0,4.936,13.3,4.179,13.3,4.179,16.558,3.756,18.127-.578-2.808-3.594-2.808-3.594-5.451-1.321-7.308-3.964C688.077,726.633,685.381,727.376,686.58,729.071Z" transform="translate(-469.663 -498.726)"/><path class="d" d="M605.3,283.555c1.909,1.321,4.823,3.413,7.311,3.413a12.187,12.187,0,0,0,1.916-.152,44.653,44.653,0,0,1,3.109-5.13S603.1,271.553,606.4,278.051C607.494,280.211,606.42,281.272,605.3,283.555Z" transform="translate(-429.073 -199.781)"/><path class="h" d="M591.43,247.331a11.873,11.873,0,0,0,5.421,9.977,10.924,10.924,0,0,0,1.163.661,11.893,11.893,0,1,0-6.584-10.644Z" transform="translate(-419.785 -172.699)"/><path class="d" d="M602.64,527.629s1.556.568,3.634,1.361a17.523,17.523,0,0,1,3.2-2.461c1.212-.443,5.177-2.755,5.068-3.416s1.652-3.191,3.191-3.634.661-2.752.661-2.752,2.973-1.1,3.713-2.643,3.006-3.525,2.233-3.413a2.4,2.4,0,0,1-.938-.367l-4.126-.515Z" transform="translate(-427.292 -356.42)"/><path class="n" d="M566.723,513.343s5.068,4.186,5.3,6.055,3.617,1.764,3.617,1.764,5.068-4.846,6.277-5.286,5.177-2.755,5.068-3.416,1.652-3.191,3.191-3.634.661-2.752.661-2.752,2.973-1.1,3.713-2.643,3.006-3.525,2.233-3.413a5.6,5.6,0,0,1-1.8-.856c-1.087-.661-2.464-1.556-3.588-2.312-1.189-.806-2.1-1.447-2.1-1.447s-.519-.093-1.407-.221c-4.793-.694-20.406-2.464-24.03,3.3a8.742,8.742,0,0,0-1.074,2.468C561.167,507.1,566.723,513.343,566.723,513.343Z" transform="translate(-400.407 -346.098)"/><path class="d" d="M576.395,511.37s-5.173,2.92-7.1,2.92S576.395,511.37,576.395,511.37Z" transform="translate(-404.78 -357.478)"/><path class="d" d="M586.153,517.99s-7.7,2.59-7.7,4.625S577.729,517.164,586.153,517.99Z" transform="translate(-411.082 -361.868)"/><path class="d" d="M657.409,482.81l-.109.149A.329.329,0,0,0,657.409,482.81Z" transform="translate(-463.894 -338.353)"/><path class="d" d="M585.3,321.163l.5.634.281.353,1.751,2.2s4.179,1.341,7.843,2.21c3.816.9,7.07,1.3,4.483-.862-1.606-1.338-1.711-3.578-1.127-5.98l-.116-.149s.116,2.227-1.2,2.27c-1.777.056-1.8-.542-3.439-1.232-2.111-.892-4.275-2.382-4.883-3.541A36.21,36.21,0,0,1,585.3,321.163Z" transform="translate(-415.68 -227.367)"/><path class="d" d="M563.39,492.517a3.815,3.815,0,0,0,2.834.066c3.413-1.1,8.811-3.76,11.341-2.6,2.028.932,10.2.905,13.214.122.75-.195,1.179-.436,1.113-.72a1.984,1.984,0,0,1,.116-.968,17.841,17.841,0,0,1,2.012-3.75l-.218-.836-2.24-2.045-3.059,4.955c-4.794-.694-20.406-2.464-24.03,3.3A8.751,8.751,0,0,0,563.39,492.517Z" transform="translate(-401.008 -337.67)"/><path class="o" d="M555.761,380.017A3.747,3.747,0,0,0,560.5,382c3.413-1.1,8.811-3.76,11.341-2.6s14.648.832,14.318-.6,2.973-5.947,2.973-5.947-1.8-.33-2.92-6.221c-.165-.859-.314-1.837-.439-2.947a37.506,37.506,0,0,1-.192-6.852c.446-6.376,2.679-8.979,2.679-8.979a7.412,7.412,0,0,0,.439-8.368c-1.384-2.54-6.971-9.58-7.047-12.719-.069-2.848-2.792-6.158-2.792-6.158s.116,2.227-1.2,2.27c-1.777.056-1.8-.542-3.439-1.232-2.408-1.018-4.883-2.811-5.045-4.011,0,0-10.1-.505-12.3,9.736s-1.431,15.857-1.1,17.07,3.191,16.848.879,23.456A22.765,22.765,0,0,0,555.761,380.017Z" transform="translate(-395.609 -227.747)"/><path class="d" d="M593.548,420.976a25.907,25.907,0,0,0,7.156,7.82,49.582,49.582,0,0,1,5.781.387c-.165-.859-.33-1.837-.439-2.947a37.494,37.494,0,0,1-.192-6.852,2.494,2.494,0,0,1-1.295-1.6c-.552-1.873-5.464-10.793-5.464-10.793s-11.493-2.973-11.893,0S590.684,416.02,593.548,420.976Z" transform="translate(-416.935 -286.697)"/><path class="h" d="M593.854,390.161s6.938,13.125,7.476,15a2.53,2.53,0,0,0,2.339,1.87s6.911,1.652,8.563,1.873,15.979,1.43,15.979,1.43,3.634.112,4.073-1.209c.4-1.209,7.423-7.562,11.487-2.018a4.04,4.04,0,0,1,.588,3.608c-.747,2.379-2.279,6.155-3.925,3.806-2.312-3.3-5-2.375-5-.615s-3.7,1.107-4.909,1.354c-.661.135-2.934.74-4.9,1.269a35.679,35.679,0,0,1-6.994,1.16c-3.9.254-9.653.466-11.691-.3-2.458-.935-6.749-1.15-8.589-1.2a2.825,2.825,0,0,1-1.675-.6,26.128,26.128,0,0,1-6.356-7.232c-2.864-4.955-8.755-15.216-8.358-18.19S593.854,390.161,593.854,390.161Z" transform="translate(-413.432 -275.427)"/><path class="d" d="M589.587,334.512a88.92,88.92,0,0,1,5.438,10.572c1.721,4.4,3.812,12.114,3.812,12.114l-10.353-1.212-.879-1.43s-7.393,4.625-6.511,6.607-1.982-2.973-1.761-8.589-.8-15.639,0-18.061S587.152,332.639,589.587,334.512Z" transform="translate(-411.477 -237.964)"/><path class="o" d="M579.351,350.578c-.221,5.616,2.643,10.572,1.761,8.589s6.511-6.607,6.511-6.607l.869,1.43,10.35,1.212s-2.091-7.711-3.812-12.114a67.4,67.4,0,0,0-3.541-7.268c-1.06-1.926-1.9-3.3-1.9-3.3-1.424-1.1-4.447-1.744-6.858-1.592a8.889,8.889,0,0,0-1.12.135,3.115,3.115,0,0,0-2.144,1.166,1.538,1.538,0,0,0-.132.291C578.545,334.939,579.562,344.962,579.351,350.578Z" transform="translate(-411.482 -236.63)"/><path class="d" d="M566,437s4.377,6.029,5.7,6.194C571.689,443.208,566.073,441.955,566,437Z" transform="translate(-402.756 -307.677)"/><path class="d" d="M566,463s8.259,8.342,10.9,8.424S566,463,566,463Z" transform="translate(-402.756 -325.087)"/><path class="d" d="M566,473.54s5.286,6.194,5.616,6.194S565.905,477.587,566,473.54Z" transform="translate(-402.754 -332.145)"/><path class="d" d="M580.33,268.236a7.326,7.326,0,0,0,2.425-.813c.284-.149.565-.314.839-.489a19.847,19.847,0,0,0,3.013-2.478,12.827,12.827,0,0,0,3.664-5.114,9.23,9.23,0,0,0,.31-1.427c.377-2.54.059-5.345,1.876-7.073a4.321,4.321,0,0,1,1.159-.783c2.577-1.226,6.313-.433,8.236-2.643,1.222-1.4,1.193-3.347,2.131-4.869a10.227,10.227,0,0,1,1.83-1.84,11.893,11.893,0,1,0-16.4,16.518c-.073.169-.152.33-.235.505-2.27,4.625-7.212,8.682-7.212,8.682l.5.634A3.234,3.234,0,0,0,580.33,268.236Z" transform="translate(-412.352 -172.639)"/><path class="p" d="M478.428,226.726c-2.237,2.564-6.938,1.07-9.4,3.419-2.16,2.058-1.3,5.649-2.184,8.5a12.847,12.847,0,0,1-3.664,5.114c-2.213,2.154-5.045,4.341-8.071,3.723-1.794-.367-3.551-1.708-5.286-1.09a6.181,6.181,0,0,0-2.124,1.715,14.638,14.638,0,0,1-8.117,4.2,3.472,3.472,0,0,1-1.84-.086c-.925-.377-1.424-1.388-2.266-1.926-1.652-1.057-3.773.026-5.487.971a38.4,38.4,0,0,1-31.543,2.27l2.673-1.321c-.568-1.16-2.1-1.414-3.082-2.263-2.015-1.748-.829-5.243,1.3-6.845s4.889-2.161,7.1-3.657a1.84,1.84,0,0,0,.948-1.245,1.982,1.982,0,0,0-.36-1.1c-1.176-2.071-2.478-4.295-2.213-6.663.4-3.634,4.371-5.867,8.015-6.122s7.251.842,10.9.905a7.146,7.146,0,0,0,3.839-.79c1.582-.951,2.379-2.765,3.34-4.341a17.731,17.731,0,0,1,7.1-6.548c3.3-1.668,7.043-2.253,10.479-3.634,3.508-1.407,6.7-3.634,10.37-4.529,5.329-1.321,11.037.406,15.639,3.393,2.217,1.437,9.3,6.049,9.25,9-.036,1.751-2.313,2.7-3.175,4.073C479.62,223.38,479.65,225.326,478.428,226.726Z" transform="translate(-289.587 -152.272)"/><g class="q" transform="translate(107.417 64.186)"><path d="M422.51,289.331a2.012,2.012,0,0,1,.36,1.1,1.117,1.117,0,0,1-.116.4,13.93,13.93,0,0,1-2.144-5.434A21.012,21.012,0,0,0,422.51,289.331Z" transform="translate(-412.814 -270.345)"/><path d="M397.721,334.345c.975.849,2.511,1.1,3.082,2.263l-.945.469a10.624,10.624,0,0,1-1.807-1.08,3.109,3.109,0,0,1-1.031-2.567A2.839,2.839,0,0,0,397.721,334.345Z" transform="translate(-397.01 -302.508)"/><path d="M432.612,272.985c1.715-.945,3.839-2.028,5.487-.971.839.539,1.341,1.549,2.266,1.926a3.459,3.459,0,0,0,1.837.086,14.648,14.648,0,0,0,8.12-4.2,6.082,6.082,0,0,1,2.124-1.715c1.724-.618,3.482.724,5.286,1.09,3.026.618,5.854-1.569,8.071-3.723a12.816,12.816,0,0,0,3.66-5.114c.885-2.851.026-6.442,2.187-8.5,2.468-2.349,7.159-.856,9.4-3.419,1.219-1.4,1.193-3.347,2.131-4.87.793-1.285,2.848-2.2,3.138-3.746a2.875,2.875,0,0,1,.367,1.321c-.036,1.751-2.313,2.7-3.175,4.073-.938,1.523-.912,3.469-2.131,4.869-2.24,2.564-6.937,1.07-9.4,3.419-2.161,2.058-1.3,5.649-2.187,8.5a12.84,12.84,0,0,1-3.66,5.114c-2.217,2.154-5.045,4.341-8.071,3.723-1.8-.367-3.555-1.708-5.286-1.09a6.12,6.12,0,0,0-2.124,1.715,14.648,14.648,0,0,1-8.12,4.2,3.458,3.458,0,0,1-1.837-.086c-.925-.377-1.427-1.387-2.266-1.926-1.652-1.057-3.773.026-5.487.971A38.4,38.4,0,0,1,401.4,276.9l1.847-.915A38.47,38.47,0,0,0,432.612,272.985Z" transform="translate(-399.95 -239.83)"/></g><path class="d" d="M740.656,595.768l2.778-1.345V593.9c0-.2-2.217.244-3.935.624C740.736,594.741,740.686,595.57,740.656,595.768Z" transform="translate(-518.939 -412.709)"/><ellipse class="b" cx="6.693" cy="8.143" rx="6.693" ry="8.143" transform="translate(217.439 136.393)"/><path class="r" d="M389.941,405.42l-10.76,10.611-35.372-.618,9.726-9.993Z" transform="translate(-230.229 -271.482)"/><path class="s" d="M461.64,441.72v-36.3l-10.76,10.611v35.52Z" transform="translate(-301.927 -271.482)"/><path class="r" d="M343.81,435.67v36.138h35.372v-35.52Z" transform="translate(-230.229 -291.738)"/><path class="t" d="M343.81,435.67v36.138h35.372v-35.52Z" transform="translate(-230.229 -291.738)"/><path class="l" d="M381.906,458.5,355.6,453.98l-3.429,17.271,27.083,4.975Z" transform="translate(-235.827 -303.999)"/><path class="b" d="M389.707,474.228l-17.684-2.778-.443,2.306,17.684,3Z" transform="translate(-248.825 -315.698)"/><path class="b" d="M390.442,491.83l-10.059-1.46-.443,2.56,10.5,1.473Z" transform="translate(-254.423 -328.367)"/><path class="k" d="M463.7,434.121l-.479-14.291-2.765,2.729.482,14.324Z" transform="translate(-308.343 -281.131)"/><path class="k" d="M357.913,416.49l33.991.459,1.143.644-2.765,2.729-.955-.562-33.667-.955Z" transform="translate(-238.164 -278.894)"/></g></svg>