<svg xmlns="http://www.w3.org/2000/svg" width="91" height="92" viewBox="0 0 91 92">
  <g id="Group_2179" data-name="Group 2179" transform="translate(-638 -1584)">
    <ellipse id="Ellipse_564" data-name="Ellipse 564" cx="45.5" cy="46" rx="45.5" ry="46" transform="translate(638 1584)" fill="#fff5f5"/>
    <text id="_" data-name="+" transform="translate(702.481 1608.156) rotate(43)" fill="#b52421" font-size="8" font-family="Arial-BoldMT, Arial" font-weight="700"><tspan x="-2" y="0">+</tspan></text>
    <circle id="Ellipse_565" data-name="Ellipse 565" cx="1.5" cy="1.5" r="1.5" transform="translate(664 1655.328)" fill="#b52421"/>
    <circle id="Ellipse_569" data-name="Ellipse 569" cx="0.75" cy="0.75" r="0.75" transform="translate(707.369 1659.328)" fill="#b52421"/>
    <g id="_7549043_user_interface_verified_person_account_icon" data-name="7549043_user_interface_verified_person_account_icon" transform="translate(664 1607.694)">
      <path id="Path_3927" data-name="Path 3927" d="M25.895,10.37a9.862,9.862,0,1,0-9.855,9.855A9.878,9.878,0,0,0,25.895,10.37Z" transform="translate(1.106 -0.5)" fill="#b52421"/>
      <path id="Path_3928" data-name="Path 3928" d="M18.435,14.5A17.157,17.157,0,0,0,1.29,31.645v2.982a5.224,5.224,0,0,0,5.218,5.218H30.362a5.233,5.233,0,0,0,5.218-5.218V31.645A17.167,17.167,0,0,0,18.435,14.5Z" transform="translate(-1.29 6.373)" fill="#b52421"/>
      <path id="Path_3929" data-name="Path 3929" d="M31.905,8.366l-5.54,5.54-2.034-2.033a2.236,2.236,0,0,0-3.162,3.162l3.615,3.614a2.236,2.236,0,0,0,3.162,0l7.121-7.121a2.236,2.236,0,1,0-3.162-3.162Z" transform="translate(8.147 3.04)" fill="#b52421"/>
    </g>
    <path id="Path_3930" data-name="Path 3930" d="M8856.434-11896.6s-1.141-7.008,1.6-12.021c1.645-3.017,5.407-6.555,9.272-7.192" transform="translate(-8189.611 13546.785)" fill="none" stroke="#fff" stroke-linecap="round" stroke-width="2"/>
    <path id="Path_3931" data-name="Path 3931" d="M8856.3-11907.793a9.072,9.072,0,0,1,.667-5.015,6.166,6.166,0,0,1,3.869-3" transform="translate(-8182.284 13526.941)" fill="none" stroke="#fff" stroke-linecap="round" stroke-width="2"/>
  </g>
</svg>
