<svg xmlns="http://www.w3.org/2000/svg" width="46" height="46" viewBox="0 0 46 46">
  <g id="Group_1077" data-name="Group 1077" transform="translate(-104 -134)">
    <circle id="Ellipse_72" data-name="Ellipse 72" cx="23" cy="23" r="23" transform="translate(104 134)" fill="#fff"/>
    <g id="Group_475" data-name="Group 475" transform="translate(110.272 142.363)">
      <g id="Group_474" data-name="Group 474">
        <path id="Path_1201" data-name="Path 1201" d="M43.821,33.756a5.187,5.187,0,0,0,1.667-3.489,5.385,5.385,0,0,0-1.667-3.489c-.219-.305-.57-.742-.658-.872a5.221,5.221,0,0,1,0-1.178,5.563,5.563,0,0,0-.746-3.795A5.349,5.349,0,0,0,38.951,19.1a4.04,4.04,0,0,1-1.1-.349c-.132-.131-.439-.654-.658-.96a5.269,5.269,0,0,0-2.851-2.617A2.7,2.7,0,0,0,33.16,15a6.665,6.665,0,0,0-2.632.654A5.714,5.714,0,0,1,29.344,16a6.6,6.6,0,0,1-1.184-.349A7.3,7.3,0,0,0,25.527,15c-.351,0-.79.087-1.184.131a6,6,0,0,0-2.851,2.617c-.219.305-.526.785-.658.96a2.318,2.318,0,0,1-1.1.349,6.024,6.024,0,0,0-3.466,1.832,5.82,5.82,0,0,0-.746,3.795,5.221,5.221,0,0,1,0,1.178,7.507,7.507,0,0,1-.658.872A5.187,5.187,0,0,0,13.2,30.223a5.385,5.385,0,0,0,1.667,3.489c.219.305.57.742.658.872a5.221,5.221,0,0,1,0,1.178,5.563,5.563,0,0,0,.746,3.795,5.349,5.349,0,0,0,3.466,1.832,4.039,4.039,0,0,1,1.1.349c.132.131.439.654.658.96a5.269,5.269,0,0,0,2.851,2.617,3.407,3.407,0,0,0,1.184.131,6.665,6.665,0,0,0,2.632-.654,5.714,5.714,0,0,1,1.184-.349,6.6,6.6,0,0,1,1.184.349,7.3,7.3,0,0,0,2.632.654c.351,0,.79-.087,1.184-.131A6,6,0,0,0,37.2,42.7c.219-.305.526-.785.658-.96a2.938,2.938,0,0,1,1.1-.349,6.024,6.024,0,0,0,3.466-1.832,5.82,5.82,0,0,0,.746-3.795,5.22,5.22,0,0,1,0-1.178C43.207,34.5,43.6,34.061,43.821,33.756Zm-1.93-1.527a6.818,6.818,0,0,0-1.184,1.658,5.768,5.768,0,0,0-.088,2.137,3.353,3.353,0,0,1-.219,2.137,2.976,2.976,0,0,1-1.974.872,4.655,4.655,0,0,0-1.974.742,4.848,4.848,0,0,0-1.316,1.614A3.262,3.262,0,0,1,33.6,43a.53.53,0,0,1-.351.087,3.7,3.7,0,0,1-1.667-.523A5.247,5.247,0,0,0,29.432,42a6.554,6.554,0,0,0-2.15.567,5.609,5.609,0,0,1-1.667.523c-.132,0-.307,0-.351-.087a4.228,4.228,0,0,1-1.535-1.614,5.916,5.916,0,0,0-1.316-1.614,6.62,6.62,0,0,0-1.974-.742c-.79-.218-1.623-.349-1.974-.872a3.353,3.353,0,0,1-.219-2.137,5,5,0,0,0-.132-2.137,4.652,4.652,0,0,0-1.184-1.658c-.57-.654-1.184-1.309-1.184-1.963a3.727,3.727,0,0,1,1.1-1.963,6.818,6.818,0,0,0,1.184-1.658,5.768,5.768,0,0,0,.088-2.137,3.353,3.353,0,0,1,.219-2.137,2.976,2.976,0,0,1,1.974-.872,4.654,4.654,0,0,0,1.974-.742A5.328,5.328,0,0,0,23.6,19.144a3.263,3.263,0,0,1,1.535-1.614.53.53,0,0,1,.351-.087,3.7,3.7,0,0,1,1.667.523,5.246,5.246,0,0,0,2.15.567,6.554,6.554,0,0,0,2.15-.567,5.609,5.609,0,0,1,1.667-.523c.132,0,.307,0,.351.087A4.228,4.228,0,0,1,35,19.144a5.916,5.916,0,0,0,1.316,1.614,6.62,6.62,0,0,0,1.974.742c.79.218,1.623.349,1.974.872a3.353,3.353,0,0,1,.219,2.137,5.809,5.809,0,0,0,.088,2.137A4.652,4.652,0,0,0,41.759,28.3a3.727,3.727,0,0,1,1.1,1.963C42.987,30.921,42.417,31.575,41.89,32.229Zm-8.2-3.4c-1.974,0-2.939,1.309-2.939,4.013a5.022,5.022,0,0,0,.746,3.01,2.9,2.9,0,0,0,4.387,0,4.769,4.769,0,0,0,.746-3.01,5.346,5.346,0,0,0-.79-3.01A2.552,2.552,0,0,0,33.687,28.827Zm0,6.194a.514.514,0,0,1-.57-.523,6.372,6.372,0,0,1,0-3.315c.132-.349.351-.523.57-.523.526,0,.79.742.79,2.181C34.564,34.279,34.257,35.021,33.687,35.021ZM27.194,30.7a4.769,4.769,0,0,0,.746-3.01,5.346,5.346,0,0,0-.79-3.01,2.637,2.637,0,0,0-2.193-1c-1.974,0-2.939,1.309-2.939,4.013a4.852,4.852,0,0,0,.746,3.01,2.637,2.637,0,0,0,2.193,1A2.408,2.408,0,0,0,27.194,30.7Zm-2.851-1.309a5.206,5.206,0,0,1-.219-1.658,5.206,5.206,0,0,1,.219-1.657c.132-.349.351-.523.57-.523.526,0,.79.742.79,2.181s-.307,2.181-.79,2.181C24.738,29.918,24.518,29.743,24.343,29.394Zm7.414-5.5-6.887,12.78h2.062L33.819,23.9Z" transform="translate(-13.2 -15)" fill="#f80"/>
      </g>
    </g>
  </g>
</svg>
