<svg xmlns="http://www.w3.org/2000/svg" width="20" height="20" viewBox="0 0 20 20"><defs><style>.a{fill:#bd3935;fill-rule:evenodd;}</style></defs><path class="a" d="M11,5.154l4.283-.345L16.834,3h8.332l1.572,1.9L31,5.154V23H11Zm4.48-.261,2.5,4.137,2.912-2.323L16.922,3.195Zm11.037,0-1.438-1.7L21.107,6.71l2.912,2.323ZM20.686,7.57V23h.207V7.57Zm.519.517A.174.174,0,1,0,21,7.915a.158.158,0,0,0,.062.122.232.232,0,0,0,.149.049Zm0,3.449A.174.174,0,1,0,21,11.364a.158.158,0,0,0,.062.122.232.232,0,0,0,.149.049Zm0,3.449A.174.174,0,1,0,21,14.813a.192.192,0,0,0,.207.171Zm0,3.449A.174.174,0,1,0,21,18.262a.192.192,0,0,0,.207.171Zm0,3.449A.174.174,0,1,0,21,21.711a.2.2,0,0,0,.21.16Zm3.957-11.293v1.9a1.737,1.737,0,0,0,1.875,1.552,1.737,1.737,0,0,0,1.875-1.552v-1.9Z" transform="translate(-11 -3)"/></svg>